G75*
%MOIN*%
%OFA0B0*%
%FSLAX25Y25*%
%IPPOS*%
%LPD*%
%AMOC8*
5,1,8,0,0,1.08239X$1,22.5*
%
%ADD10C,0.00000*%
%ADD11R,0.11250X0.11250*%
%ADD12R,0.06299X0.07087*%
%ADD13R,0.07087X0.06299*%
%ADD14R,0.05118X0.05906*%
%ADD15R,0.05906X0.05118*%
%ADD16R,0.04331X0.03937*%
%ADD17R,0.03937X0.04331*%
%ADD18C,0.04800*%
%ADD19C,0.06000*%
%ADD20R,0.04724X0.01575*%
%ADD21R,0.05906X0.07874*%
%ADD22R,0.14961X0.07874*%
%ADD23C,0.05400*%
%ADD24C,0.23000*%
D10*
X0007000Y0020587D02*
X0007000Y0158383D01*
X0203850Y0158383D01*
X0203850Y0020587D01*
X0007000Y0020587D01*
D11*
X0068250Y0058087D03*
D12*
X0131488Y0037462D03*
X0142512Y0037462D03*
X0151488Y0037462D03*
X0162512Y0037462D03*
D13*
X0174500Y0055701D03*
X0174500Y0066724D03*
X0112000Y0072576D03*
X0112000Y0083599D03*
X0063250Y0098826D03*
X0063250Y0109849D03*
D14*
X0054490Y0121837D03*
X0047010Y0121837D03*
X0059510Y0075587D03*
X0066990Y0075587D03*
X0097010Y0075587D03*
X0104490Y0075587D03*
X0119510Y0053712D03*
X0126990Y0053712D03*
X0126990Y0045587D03*
X0119510Y0045587D03*
X0135760Y0045587D03*
X0143240Y0045587D03*
X0152010Y0045587D03*
X0159490Y0045587D03*
X0066990Y0041837D03*
X0059510Y0041837D03*
D15*
X0088250Y0053097D03*
X0088250Y0060578D03*
X0120125Y0074347D03*
X0120125Y0081828D03*
X0165750Y0061828D03*
X0165750Y0054347D03*
X0028250Y0112472D03*
X0028250Y0119953D03*
D16*
X0097404Y0056212D03*
X0104096Y0056212D03*
X0128250Y0078491D03*
X0128250Y0085184D03*
X0159500Y0112241D03*
X0159500Y0118934D03*
X0159500Y0124741D03*
X0159500Y0131434D03*
X0157625Y0142241D03*
X0157625Y0148934D03*
X0166375Y0148934D03*
X0166375Y0142241D03*
D17*
X0104096Y0064962D03*
X0097404Y0064962D03*
X0069096Y0131837D03*
X0062404Y0131837D03*
D18*
X0189600Y0121837D02*
X0194400Y0121837D01*
X0194400Y0111837D02*
X0189600Y0111837D01*
X0189600Y0101837D02*
X0194400Y0101837D01*
X0194400Y0091837D02*
X0189600Y0091837D01*
X0189600Y0081837D02*
X0194400Y0081837D01*
D19*
X0117000Y0032337D02*
X0117000Y0026337D01*
X0107000Y0026337D02*
X0107000Y0032337D01*
X0097000Y0032337D02*
X0097000Y0026337D01*
X0018750Y0058087D02*
X0012750Y0058087D01*
X0012750Y0068087D02*
X0018750Y0068087D01*
X0018750Y0078087D02*
X0012750Y0078087D01*
X0012750Y0088087D02*
X0018750Y0088087D01*
X0043250Y0142587D02*
X0043250Y0148587D01*
X0053250Y0148587D02*
X0053250Y0142587D01*
X0063250Y0142587D02*
X0063250Y0148587D01*
D20*
X0135583Y0088471D03*
X0135583Y0085912D03*
X0135583Y0083353D03*
X0135583Y0080794D03*
X0135583Y0078235D03*
X0135583Y0075676D03*
X0135583Y0073117D03*
X0135583Y0070558D03*
X0135583Y0067999D03*
X0135583Y0065440D03*
X0135583Y0062881D03*
X0135583Y0060322D03*
X0135583Y0057763D03*
X0135583Y0055204D03*
X0158417Y0055204D03*
X0158417Y0057763D03*
X0158417Y0060322D03*
X0158417Y0062881D03*
X0158417Y0065440D03*
X0158417Y0067999D03*
X0158417Y0070558D03*
X0158417Y0073117D03*
X0158417Y0075676D03*
X0158417Y0078235D03*
X0158417Y0080794D03*
X0158417Y0083353D03*
X0158417Y0085912D03*
X0158417Y0088471D03*
D21*
X0054805Y0111739D03*
X0045750Y0111739D03*
X0036695Y0111739D03*
D22*
X0045750Y0086936D03*
D23*
X0017200Y0113087D02*
X0011800Y0113087D01*
X0011800Y0123087D02*
X0017200Y0123087D01*
D24*
X0022748Y0142635D03*
X0022748Y0036335D03*
X0188102Y0036335D03*
X0188102Y0142635D03*
M02*
