G75*
%MOIN*%
%OFA0B0*%
%FSLAX25Y25*%
%IPPOS*%
%LPD*%
%AMOC8*
5,1,8,0,0,1.08239X$1,22.5*
%
%ADD10C,0.00000*%
%ADD11R,0.07087X0.06299*%
%ADD12R,0.05906X0.05118*%
%ADD13R,0.06299X0.07087*%
%ADD14R,0.04331X0.03937*%
%ADD15R,0.03937X0.04331*%
%ADD16R,0.10630X0.06299*%
%ADD17R,0.05118X0.05906*%
%ADD18R,0.04724X0.04724*%
%ADD19C,0.04800*%
%ADD20C,0.06000*%
%ADD21R,0.11811X0.04724*%
%ADD22R,0.04724X0.11811*%
%ADD23R,0.01200X0.03200*%
%ADD24R,0.03200X0.01200*%
%ADD25R,0.10200X0.10200*%
%ADD26C,0.05400*%
%ADD27C,0.23000*%
%ADD28C,0.03937*%
%ADD29OC8,0.02381*%
%ADD30C,0.01000*%
%ADD31C,0.01200*%
%ADD32OC8,0.02775*%
%ADD33C,0.02400*%
%ADD34OC8,0.03169*%
%ADD35C,0.03200*%
D10*
X0007000Y0020587D02*
X0007000Y0158383D01*
X0203850Y0158383D01*
X0203850Y0020587D01*
X0007000Y0020587D01*
D11*
X0034500Y0110701D03*
X0034500Y0121724D03*
D12*
X0069500Y0104328D03*
X0069500Y0096847D03*
X0078250Y0082280D03*
X0078250Y0075587D03*
X0078250Y0068894D03*
X0086375Y0065597D03*
X0086375Y0073078D03*
X0085750Y0046828D03*
X0085750Y0039347D03*
X0078250Y0039337D03*
X0078250Y0032644D03*
X0078250Y0046030D03*
D13*
X0068762Y0039962D03*
X0057738Y0039962D03*
X0057738Y0078087D03*
X0068762Y0078087D03*
D14*
X0104904Y0054337D03*
X0111596Y0054337D03*
X0159500Y0098491D03*
X0159500Y0105184D03*
X0159500Y0112241D03*
X0159500Y0118934D03*
X0173250Y0070809D03*
X0173250Y0064116D03*
X0182000Y0064116D03*
X0182000Y0070809D03*
D15*
X0190750Y0070809D03*
X0190750Y0064116D03*
X0111596Y0063087D03*
X0104904Y0063087D03*
X0054721Y0059962D03*
X0048029Y0059962D03*
D16*
X0059500Y0096326D03*
X0059500Y0107349D03*
D17*
X0019490Y0103087D03*
X0012010Y0103087D03*
X0088260Y0055587D03*
X0095740Y0055587D03*
D18*
X0158875Y0141454D03*
X0167000Y0141454D03*
X0167000Y0149721D03*
X0158875Y0149721D03*
D19*
X0189600Y0121837D02*
X0194400Y0121837D01*
X0194400Y0111837D02*
X0189600Y0111837D01*
X0189600Y0101837D02*
X0194400Y0101837D01*
X0194400Y0091837D02*
X0189600Y0091837D01*
X0189600Y0081837D02*
X0194400Y0081837D01*
D20*
X0117000Y0032337D02*
X0117000Y0026337D01*
X0107000Y0026337D02*
X0107000Y0032337D01*
X0097000Y0032337D02*
X0097000Y0026337D01*
X0018750Y0058087D02*
X0012750Y0058087D01*
X0012750Y0068087D02*
X0018750Y0068087D01*
X0018750Y0078087D02*
X0012750Y0078087D01*
X0012750Y0088087D02*
X0018750Y0088087D01*
X0043250Y0142587D02*
X0043250Y0148587D01*
X0053250Y0148587D02*
X0053250Y0142587D01*
X0063250Y0142587D02*
X0063250Y0148587D01*
D21*
X0080573Y0144923D03*
X0080573Y0137049D03*
X0080573Y0129175D03*
X0080573Y0121301D03*
X0080573Y0113427D03*
X0080573Y0105553D03*
X0080573Y0097679D03*
X0080573Y0152797D03*
X0145140Y0152797D03*
X0145140Y0144923D03*
X0145140Y0137049D03*
X0145140Y0129175D03*
X0145140Y0121301D03*
X0145140Y0113427D03*
X0145140Y0105553D03*
X0145140Y0097679D03*
D22*
X0133722Y0089411D03*
X0125848Y0089411D03*
X0117974Y0089411D03*
X0110100Y0089411D03*
X0102226Y0089411D03*
X0094352Y0089411D03*
D23*
X0072150Y0065887D03*
X0070250Y0065887D03*
X0068250Y0065887D03*
X0066250Y0065887D03*
X0064350Y0065887D03*
X0064350Y0050287D03*
X0066250Y0050287D03*
X0068250Y0050287D03*
X0070250Y0050287D03*
X0072150Y0050287D03*
D24*
X0076050Y0054187D03*
X0076050Y0056087D03*
X0076050Y0058087D03*
X0076050Y0060087D03*
X0076050Y0061987D03*
X0060450Y0061987D03*
X0060450Y0060087D03*
X0060450Y0058087D03*
X0060450Y0056087D03*
X0060450Y0054187D03*
D25*
X0068250Y0058087D03*
D26*
X0017200Y0113087D02*
X0011800Y0113087D01*
X0011800Y0123087D02*
X0017200Y0123087D01*
D27*
X0022748Y0142635D03*
X0022748Y0036335D03*
X0188102Y0036335D03*
X0188102Y0142635D03*
D28*
X0164500Y0090587D03*
X0143250Y0080962D03*
X0069500Y0129337D03*
D29*
X0070975Y0124962D03*
X0072000Y0134962D03*
X0069075Y0145387D03*
X0071350Y0154487D03*
X0058025Y0154162D03*
X0049250Y0136937D03*
X0048925Y0127837D03*
X0039825Y0127512D03*
X0039500Y0120037D03*
X0044187Y0114337D03*
X0044187Y0111837D03*
X0044187Y0109337D03*
X0047312Y0109337D03*
X0047312Y0111837D03*
X0047312Y0114337D03*
X0041450Y0104437D03*
X0036250Y0097287D03*
X0039500Y0089337D03*
X0042000Y0089337D03*
X0044500Y0089337D03*
X0047000Y0089337D03*
X0047000Y0086837D03*
X0047000Y0084337D03*
X0044500Y0084337D03*
X0042000Y0084337D03*
X0039500Y0084337D03*
X0039500Y0086837D03*
X0042000Y0086837D03*
X0044500Y0086837D03*
X0049500Y0086837D03*
X0049500Y0084337D03*
X0052000Y0086837D03*
X0052000Y0089337D03*
X0049500Y0089337D03*
X0049575Y0093712D03*
X0056400Y0089812D03*
X0067000Y0071537D03*
X0067000Y0061837D03*
X0064500Y0061837D03*
X0064500Y0059337D03*
X0064500Y0056837D03*
X0064500Y0054337D03*
X0067000Y0054337D03*
X0069500Y0054337D03*
X0072000Y0054337D03*
X0072000Y0056837D03*
X0069500Y0056837D03*
X0067000Y0056837D03*
X0067000Y0059337D03*
X0069500Y0059337D03*
X0072000Y0059337D03*
X0072000Y0061837D03*
X0069500Y0061837D03*
X0057000Y0060087D03*
X0041775Y0055687D03*
X0040800Y0062837D03*
X0037225Y0069012D03*
X0032025Y0061537D03*
X0028125Y0064787D03*
X0023575Y0061537D03*
X0024550Y0051137D03*
X0011550Y0050812D03*
X0036575Y0042037D03*
X0045025Y0033912D03*
X0046975Y0043337D03*
X0051650Y0043987D03*
X0057050Y0024812D03*
X0069400Y0024812D03*
X0083700Y0024812D03*
X0101950Y0037112D03*
X0110675Y0027087D03*
X0123675Y0025462D03*
X0139925Y0025462D03*
X0155850Y0025462D03*
X0166250Y0028387D03*
X0168525Y0037487D03*
X0165275Y0047887D03*
X0174700Y0048537D03*
X0180550Y0050812D03*
X0180875Y0056012D03*
X0191275Y0058287D03*
X0196475Y0067062D03*
X0186400Y0076487D03*
X0175025Y0075837D03*
X0168250Y0077462D03*
X0163975Y0074212D03*
X0165125Y0067462D03*
X0153250Y0061837D03*
X0149350Y0059587D03*
X0141225Y0061912D03*
X0146100Y0069337D03*
X0142200Y0073237D03*
X0140900Y0076487D03*
X0149500Y0079837D03*
X0153250Y0073712D03*
X0165125Y0084962D03*
X0159550Y0091412D03*
X0162000Y0094337D03*
X0173875Y0094337D03*
X0174050Y0088512D03*
X0183475Y0088187D03*
X0185425Y0098262D03*
X0177300Y0101837D03*
X0179500Y0106212D03*
X0188025Y0107037D03*
X0185425Y0117112D03*
X0173875Y0113087D03*
X0168250Y0109337D03*
X0165125Y0106837D03*
X0163875Y0119337D03*
X0172000Y0124962D03*
X0175025Y0131737D03*
X0163000Y0137262D03*
X0159500Y0134962D03*
X0153250Y0136212D03*
X0154500Y0126212D03*
X0137325Y0140837D03*
X0137000Y0148962D03*
X0128875Y0139537D03*
X0130500Y0133687D03*
X0135700Y0129137D03*
X0135375Y0121987D03*
X0135375Y0113537D03*
X0128225Y0107362D03*
X0134400Y0106387D03*
X0121400Y0107362D03*
X0113600Y0107362D03*
X0106450Y0107362D03*
X0099625Y0107687D03*
X0099300Y0115162D03*
X0097025Y0121012D03*
X0089875Y0117762D03*
X0091175Y0113862D03*
X0087925Y0109312D03*
X0090750Y0102462D03*
X0091175Y0098912D03*
X0089500Y0095587D03*
X0095750Y0098087D03*
X0084500Y0086837D03*
X0080775Y0091112D03*
X0097010Y0081203D03*
X0104175Y0081037D03*
X0104500Y0069337D03*
X0098000Y0070037D03*
X0091975Y0074987D03*
X0100600Y0060562D03*
X0108400Y0058612D03*
X0108050Y0049187D03*
X0101025Y0049212D03*
X0083600Y0054612D03*
X0118150Y0065812D03*
X0122000Y0068712D03*
X0127950Y0067462D03*
X0139600Y0051787D03*
X0153575Y0052112D03*
X0148875Y0087462D03*
X0140125Y0087462D03*
X0089875Y0126212D03*
X0089875Y0140837D03*
X0089550Y0148962D03*
X0103200Y0149612D03*
X0115225Y0149287D03*
X0125625Y0148962D03*
X0153875Y0149337D03*
X0154550Y0154155D03*
X0163000Y0154812D03*
X0171375Y0149337D03*
X0176000Y0154162D03*
X0199400Y0153512D03*
X0200050Y0130112D03*
X0195825Y0116787D03*
X0199725Y0108337D03*
X0199400Y0096962D03*
X0199400Y0087212D03*
X0198750Y0025462D03*
X0071675Y0113537D03*
X0058350Y0128162D03*
X0037225Y0136287D03*
X0035925Y0153837D03*
X0011550Y0153187D03*
X0011225Y0094687D03*
X0020650Y0094037D03*
X0026500Y0094612D03*
X0028125Y0084612D03*
X0036900Y0076487D03*
X0027475Y0074212D03*
X0033975Y0024487D03*
X0011550Y0025137D03*
D30*
X0009500Y0025580D02*
X0015445Y0025580D01*
X0014995Y0025881D02*
X0016057Y0025172D01*
X0017183Y0024569D01*
X0018363Y0024081D01*
X0019585Y0023710D01*
X0020838Y0023461D01*
X0022109Y0023335D01*
X0022248Y0023335D01*
X0022248Y0035835D01*
X0023248Y0035835D01*
X0023248Y0023335D01*
X0023387Y0023335D01*
X0024658Y0023461D01*
X0025911Y0023710D01*
X0027133Y0024081D01*
X0028313Y0024569D01*
X0029439Y0025172D01*
X0030501Y0025881D01*
X0031489Y0026691D01*
X0032392Y0027595D01*
X0033202Y0028582D01*
X0033912Y0029644D01*
X0034514Y0030771D01*
X0035003Y0031951D01*
X0035374Y0033173D01*
X0035623Y0034426D01*
X0035748Y0035697D01*
X0035748Y0035835D01*
X0023248Y0035835D01*
X0023248Y0036835D01*
X0035748Y0036835D01*
X0035748Y0036974D01*
X0035623Y0038245D01*
X0035374Y0039498D01*
X0035003Y0040720D01*
X0034514Y0041900D01*
X0033912Y0043027D01*
X0033202Y0044089D01*
X0032392Y0045076D01*
X0031489Y0045979D01*
X0030501Y0046790D01*
X0029439Y0047499D01*
X0028313Y0048101D01*
X0027133Y0048590D01*
X0025911Y0048961D01*
X0024658Y0049210D01*
X0023387Y0049335D01*
X0023248Y0049335D01*
X0023248Y0036835D01*
X0022248Y0036835D01*
X0022248Y0035835D01*
X0009748Y0035835D01*
X0009748Y0035697D01*
X0009873Y0034426D01*
X0010122Y0033173D01*
X0010493Y0031951D01*
X0010982Y0030771D01*
X0011584Y0029644D01*
X0012294Y0028582D01*
X0013104Y0027595D01*
X0014007Y0026691D01*
X0014995Y0025881D01*
X0014145Y0026578D02*
X0009500Y0026578D01*
X0009500Y0027577D02*
X0013122Y0027577D01*
X0012299Y0028575D02*
X0009500Y0028575D01*
X0009500Y0029574D02*
X0011631Y0029574D01*
X0011088Y0030573D02*
X0009500Y0030573D01*
X0009500Y0031571D02*
X0010650Y0031571D01*
X0010305Y0032570D02*
X0009500Y0032570D01*
X0009500Y0033568D02*
X0010044Y0033568D01*
X0009859Y0034567D02*
X0009500Y0034567D01*
X0009500Y0035565D02*
X0009761Y0035565D01*
X0009500Y0036564D02*
X0022248Y0036564D01*
X0022248Y0036835D02*
X0009748Y0036835D01*
X0009748Y0036974D01*
X0009873Y0038245D01*
X0010122Y0039498D01*
X0010493Y0040720D01*
X0010982Y0041900D01*
X0011584Y0043027D01*
X0012294Y0044089D01*
X0013104Y0045076D01*
X0014007Y0045979D01*
X0014995Y0046790D01*
X0016057Y0047499D01*
X0017183Y0048101D01*
X0018363Y0048590D01*
X0019585Y0048961D01*
X0020838Y0049210D01*
X0022109Y0049335D01*
X0022248Y0049335D01*
X0022248Y0036835D01*
X0022248Y0037562D02*
X0023248Y0037562D01*
X0023248Y0036564D02*
X0047300Y0036564D01*
X0047300Y0037562D02*
X0035690Y0037562D01*
X0035560Y0038561D02*
X0047300Y0038561D01*
X0047300Y0039559D02*
X0035355Y0039559D01*
X0035052Y0040558D02*
X0047300Y0040558D01*
X0047300Y0041556D02*
X0034657Y0041556D01*
X0034164Y0042555D02*
X0047300Y0042555D01*
X0047300Y0042749D02*
X0047300Y0029051D01*
X0048589Y0027762D01*
X0050464Y0025887D01*
X0091036Y0025887D01*
X0092300Y0027151D01*
X0092300Y0025402D01*
X0093016Y0023675D01*
X0093603Y0023087D01*
X0009500Y0023087D01*
X0009500Y0054691D01*
X0010088Y0054103D01*
X0011815Y0053387D01*
X0019685Y0053387D01*
X0021412Y0054103D01*
X0022734Y0055425D01*
X0022866Y0055743D01*
X0032975Y0045635D01*
X0034322Y0044287D01*
X0048759Y0044287D01*
X0048759Y0044208D01*
X0047300Y0042749D01*
X0048104Y0043553D02*
X0033560Y0043553D01*
X0034058Y0044552D02*
X0032822Y0044552D01*
X0033060Y0045550D02*
X0031918Y0045550D01*
X0032061Y0046549D02*
X0030795Y0046549D01*
X0031062Y0047547D02*
X0029350Y0047547D01*
X0030064Y0048546D02*
X0027240Y0048546D01*
X0029065Y0049544D02*
X0009500Y0049544D01*
X0009500Y0048546D02*
X0018256Y0048546D01*
X0016146Y0047547D02*
X0009500Y0047547D01*
X0009500Y0046549D02*
X0014701Y0046549D01*
X0013578Y0045550D02*
X0009500Y0045550D01*
X0009500Y0044552D02*
X0012674Y0044552D01*
X0011936Y0043553D02*
X0009500Y0043553D01*
X0009500Y0042555D02*
X0011332Y0042555D01*
X0010839Y0041556D02*
X0009500Y0041556D01*
X0009500Y0040558D02*
X0010444Y0040558D01*
X0010141Y0039559D02*
X0009500Y0039559D01*
X0009500Y0038561D02*
X0009936Y0038561D01*
X0009806Y0037562D02*
X0009500Y0037562D01*
X0022248Y0038561D02*
X0023248Y0038561D01*
X0023248Y0039559D02*
X0022248Y0039559D01*
X0022248Y0040558D02*
X0023248Y0040558D01*
X0023248Y0041556D02*
X0022248Y0041556D01*
X0022248Y0042555D02*
X0023248Y0042555D01*
X0023248Y0043553D02*
X0022248Y0043553D01*
X0022248Y0044552D02*
X0023248Y0044552D01*
X0023248Y0045550D02*
X0022248Y0045550D01*
X0022248Y0046549D02*
X0023248Y0046549D01*
X0023248Y0047547D02*
X0022248Y0047547D01*
X0022248Y0048546D02*
X0023248Y0048546D01*
X0027068Y0051541D02*
X0009500Y0051541D01*
X0009500Y0050543D02*
X0028067Y0050543D01*
X0026070Y0052540D02*
X0009500Y0052540D01*
X0009500Y0053538D02*
X0011451Y0053538D01*
X0009654Y0054537D02*
X0009500Y0054537D01*
X0009500Y0061484D02*
X0009500Y0064691D01*
X0010088Y0064103D01*
X0011815Y0063387D01*
X0019685Y0063387D01*
X0021412Y0064103D01*
X0021760Y0064450D01*
X0035325Y0050885D01*
X0036672Y0049537D01*
X0054934Y0049537D01*
X0055584Y0048887D01*
X0036228Y0048887D01*
X0024728Y0060387D01*
X0022885Y0060387D01*
X0022734Y0060750D01*
X0021412Y0062072D01*
X0019685Y0062787D01*
X0011815Y0062787D01*
X0010088Y0062072D01*
X0009500Y0061484D01*
X0009500Y0061526D02*
X0009542Y0061526D01*
X0009500Y0062525D02*
X0011181Y0062525D01*
X0011487Y0063523D02*
X0009500Y0063523D01*
X0009500Y0064522D02*
X0009669Y0064522D01*
X0009500Y0071484D02*
X0009500Y0074691D01*
X0010088Y0074103D01*
X0011815Y0073387D01*
X0019685Y0073387D01*
X0020136Y0073574D01*
X0030055Y0063655D01*
X0029557Y0063158D01*
X0023278Y0069437D01*
X0022734Y0070750D01*
X0021412Y0072072D01*
X0019685Y0072787D01*
X0011815Y0072787D01*
X0010088Y0072072D01*
X0009500Y0071484D01*
X0009500Y0071511D02*
X0009527Y0071511D01*
X0009500Y0072510D02*
X0011145Y0072510D01*
X0011523Y0073509D02*
X0009500Y0073509D01*
X0009500Y0074507D02*
X0009684Y0074507D01*
X0009500Y0081484D02*
X0009500Y0084691D01*
X0010088Y0084103D01*
X0011815Y0083387D01*
X0019685Y0083387D01*
X0021020Y0083940D01*
X0033625Y0071335D01*
X0033625Y0071310D01*
X0034972Y0069962D01*
X0053497Y0069962D01*
X0055272Y0068187D01*
X0032028Y0068187D01*
X0023337Y0076879D01*
X0023450Y0077152D01*
X0023450Y0079022D01*
X0022734Y0080750D01*
X0021412Y0082072D01*
X0019685Y0082787D01*
X0011815Y0082787D01*
X0010088Y0082072D01*
X0009500Y0081484D01*
X0009500Y0081497D02*
X0009512Y0081497D01*
X0009500Y0082495D02*
X0011109Y0082495D01*
X0011559Y0083494D02*
X0009500Y0083494D01*
X0009500Y0084492D02*
X0009698Y0084492D01*
X0009500Y0091484D02*
X0009500Y0098435D01*
X0015273Y0098435D01*
X0015750Y0098912D01*
X0016227Y0098435D01*
X0022753Y0098435D01*
X0023749Y0099430D01*
X0023749Y0105170D01*
X0024966Y0106386D01*
X0024966Y0106282D01*
X0024950Y0106244D01*
X0024950Y0104931D01*
X0024966Y0104893D01*
X0024966Y0104227D01*
X0025437Y0103756D01*
X0025452Y0103718D01*
X0026381Y0102790D01*
X0026419Y0102774D01*
X0026890Y0102303D01*
X0027556Y0102303D01*
X0027594Y0102287D01*
X0033181Y0102287D01*
X0034394Y0102790D01*
X0036494Y0104890D01*
X0037423Y0105818D01*
X0037436Y0105851D01*
X0038747Y0105851D01*
X0039743Y0106847D01*
X0039743Y0114554D01*
X0038747Y0115550D01*
X0030253Y0115550D01*
X0029257Y0114554D01*
X0029257Y0113887D01*
X0023844Y0113887D01*
X0022631Y0113385D01*
X0021702Y0112457D01*
X0021600Y0112354D01*
X0021600Y0113963D01*
X0020930Y0115580D01*
X0019692Y0116818D01*
X0018075Y0117487D01*
X0010925Y0117487D01*
X0009500Y0116897D01*
X0009500Y0119567D01*
X0009599Y0119495D01*
X0010188Y0119195D01*
X0010816Y0118991D01*
X0011469Y0118887D01*
X0014100Y0118887D01*
X0014100Y0122687D01*
X0014900Y0122687D01*
X0014900Y0118887D01*
X0017531Y0118887D01*
X0018184Y0118991D01*
X0018812Y0119195D01*
X0019401Y0119495D01*
X0019936Y0119884D01*
X0020404Y0120351D01*
X0020792Y0120886D01*
X0021092Y0121475D01*
X0021297Y0122104D01*
X0021389Y0122687D01*
X0014900Y0122687D01*
X0014900Y0123487D01*
X0021389Y0123487D01*
X0021297Y0124071D01*
X0021092Y0124700D01*
X0020792Y0125289D01*
X0020404Y0125824D01*
X0019936Y0126291D01*
X0019401Y0126680D01*
X0018812Y0126980D01*
X0018184Y0127184D01*
X0017531Y0127287D01*
X0014900Y0127287D01*
X0014900Y0123487D01*
X0014100Y0123487D01*
X0014100Y0127287D01*
X0011469Y0127287D01*
X0010816Y0127184D01*
X0010188Y0126980D01*
X0009599Y0126680D01*
X0009500Y0126608D01*
X0009500Y0155883D01*
X0072987Y0155883D01*
X0072967Y0155863D01*
X0072967Y0149731D01*
X0073838Y0148860D01*
X0072967Y0147989D01*
X0072967Y0147123D01*
X0072924Y0147123D01*
X0071636Y0145834D01*
X0068589Y0142787D01*
X0068589Y0142787D01*
X0067950Y0142149D01*
X0067950Y0149522D01*
X0067234Y0151250D01*
X0065912Y0152572D01*
X0064185Y0153287D01*
X0062315Y0153287D01*
X0060588Y0152572D01*
X0059266Y0151250D01*
X0058550Y0149522D01*
X0058550Y0141652D01*
X0059266Y0139925D01*
X0060153Y0139037D01*
X0056347Y0139037D01*
X0057234Y0139925D01*
X0057950Y0141652D01*
X0057950Y0149522D01*
X0057234Y0151250D01*
X0055912Y0152572D01*
X0054185Y0153287D01*
X0052315Y0153287D01*
X0050588Y0152572D01*
X0049266Y0151250D01*
X0048550Y0149522D01*
X0048550Y0141652D01*
X0049266Y0139925D01*
X0050588Y0138603D01*
X0051050Y0138411D01*
X0051050Y0137801D01*
X0052339Y0136512D01*
X0054214Y0134637D01*
X0068536Y0134637D01*
X0069109Y0135211D01*
X0069109Y0133765D01*
X0069869Y0133006D01*
X0068770Y0133006D01*
X0067422Y0132447D01*
X0066390Y0131415D01*
X0065831Y0130067D01*
X0065831Y0128608D01*
X0066390Y0127259D01*
X0067422Y0126227D01*
X0068770Y0125669D01*
X0070230Y0125669D01*
X0071578Y0126227D01*
X0072326Y0126975D01*
X0072967Y0126975D01*
X0072967Y0126109D01*
X0073838Y0125238D01*
X0072967Y0124367D01*
X0072967Y0118235D01*
X0073838Y0117364D01*
X0072967Y0116493D01*
X0072967Y0110361D01*
X0073838Y0109490D01*
X0072967Y0108619D01*
X0072967Y0108302D01*
X0072650Y0108387D01*
X0070000Y0108387D01*
X0070000Y0104828D01*
X0069000Y0104828D01*
X0069000Y0108387D01*
X0066350Y0108387D01*
X0066315Y0108377D01*
X0066315Y0110696D01*
X0066213Y0111078D01*
X0066015Y0111420D01*
X0065736Y0111699D01*
X0065394Y0111897D01*
X0065012Y0111999D01*
X0060000Y0111999D01*
X0060000Y0107849D01*
X0059000Y0107849D01*
X0059000Y0111999D01*
X0053988Y0111999D01*
X0053975Y0111995D01*
X0053975Y0114386D01*
X0054151Y0114562D01*
X0059005Y0114562D01*
X0059390Y0114178D01*
X0062110Y0114178D01*
X0064034Y0116102D01*
X0064034Y0118823D01*
X0062110Y0120747D01*
X0059390Y0120747D01*
X0059005Y0120362D01*
X0052373Y0120362D01*
X0051307Y0119921D01*
X0050491Y0119105D01*
X0048616Y0117230D01*
X0048175Y0116164D01*
X0048175Y0098136D01*
X0048616Y0097070D01*
X0049432Y0096254D01*
X0051819Y0093867D01*
X0052485Y0093591D01*
X0052485Y0092472D01*
X0053481Y0091476D01*
X0065519Y0091476D01*
X0066515Y0092472D01*
X0066515Y0092588D01*
X0073157Y0092588D01*
X0073881Y0093312D01*
X0079683Y0093312D01*
X0080418Y0093617D01*
X0087183Y0093617D01*
X0087283Y0093717D01*
X0087300Y0093700D01*
X0087300Y0092749D01*
X0084279Y0089728D01*
X0083303Y0089728D01*
X0081609Y0088035D01*
X0081609Y0086539D01*
X0074593Y0086539D01*
X0073597Y0085544D01*
X0073597Y0084480D01*
X0072043Y0084480D01*
X0070990Y0083426D01*
X0070708Y0084105D01*
X0070284Y0084529D01*
X0070284Y0085073D01*
X0068360Y0086997D01*
X0067817Y0086997D01*
X0067393Y0087421D01*
X0066327Y0087862D01*
X0053923Y0087862D01*
X0052857Y0087421D01*
X0048924Y0083487D01*
X0036326Y0083487D01*
X0035083Y0084730D01*
X0034268Y0085546D01*
X0034128Y0085604D01*
X0033360Y0086372D01*
X0030640Y0086372D01*
X0028716Y0084448D01*
X0028716Y0082749D01*
X0023450Y0088015D01*
X0023450Y0089022D01*
X0022734Y0090750D01*
X0021412Y0092072D01*
X0019685Y0092787D01*
X0011815Y0092787D01*
X0010088Y0092072D01*
X0009500Y0091484D01*
X0009500Y0092480D02*
X0011074Y0092480D01*
X0009500Y0093479D02*
X0052485Y0093479D01*
X0052485Y0092480D02*
X0020426Y0092480D01*
X0022002Y0091482D02*
X0053475Y0091482D01*
X0051209Y0094477D02*
X0009500Y0094477D01*
X0009500Y0095476D02*
X0050210Y0095476D01*
X0049212Y0096474D02*
X0009500Y0096474D01*
X0009500Y0097473D02*
X0048450Y0097473D01*
X0048175Y0098471D02*
X0022790Y0098471D01*
X0023749Y0099470D02*
X0048175Y0099470D01*
X0048175Y0100468D02*
X0023749Y0100468D01*
X0023749Y0101467D02*
X0048175Y0101467D01*
X0048175Y0102465D02*
X0033611Y0102465D01*
X0035068Y0103464D02*
X0048175Y0103464D01*
X0048175Y0104462D02*
X0036067Y0104462D01*
X0037065Y0105461D02*
X0048175Y0105461D01*
X0048175Y0106459D02*
X0039356Y0106459D01*
X0039743Y0107458D02*
X0048175Y0107458D01*
X0048175Y0108456D02*
X0039743Y0108456D01*
X0039743Y0109455D02*
X0048175Y0109455D01*
X0048175Y0110453D02*
X0039743Y0110453D01*
X0039743Y0111452D02*
X0048175Y0111452D01*
X0048175Y0112450D02*
X0039743Y0112450D01*
X0039743Y0113449D02*
X0048175Y0113449D01*
X0048175Y0114447D02*
X0039743Y0114447D01*
X0038852Y0115446D02*
X0048175Y0115446D01*
X0048291Y0116444D02*
X0020065Y0116444D01*
X0020986Y0115446D02*
X0030148Y0115446D01*
X0029257Y0114447D02*
X0021399Y0114447D01*
X0021600Y0113449D02*
X0022785Y0113449D01*
X0021696Y0112450D02*
X0021600Y0112450D01*
X0018182Y0117443D02*
X0029967Y0117443D01*
X0030036Y0117374D02*
X0030378Y0117177D01*
X0030759Y0117075D01*
X0034000Y0117075D01*
X0034000Y0121224D01*
X0035000Y0121224D01*
X0035000Y0117075D01*
X0038241Y0117075D01*
X0038622Y0117177D01*
X0038964Y0117374D01*
X0039244Y0117654D01*
X0039441Y0117996D01*
X0039543Y0118377D01*
X0039543Y0121224D01*
X0035000Y0121224D01*
X0035000Y0122224D01*
X0039543Y0122224D01*
X0039543Y0125071D01*
X0039441Y0125453D01*
X0039244Y0125795D01*
X0038964Y0126074D01*
X0038622Y0126272D01*
X0038241Y0126374D01*
X0035000Y0126374D01*
X0035000Y0122224D01*
X0034000Y0122224D01*
X0034000Y0121224D01*
X0029457Y0121224D01*
X0029457Y0118377D01*
X0029559Y0117996D01*
X0029756Y0117654D01*
X0030036Y0117374D01*
X0029457Y0118442D02*
X0009500Y0118442D01*
X0009500Y0119440D02*
X0009707Y0119440D01*
X0009500Y0117443D02*
X0010818Y0117443D01*
X0014100Y0119440D02*
X0014900Y0119440D01*
X0014900Y0120439D02*
X0014100Y0120439D01*
X0014100Y0121437D02*
X0014900Y0121437D01*
X0014900Y0122436D02*
X0014100Y0122436D01*
X0014900Y0123434D02*
X0029457Y0123434D01*
X0029457Y0122436D02*
X0021349Y0122436D01*
X0021073Y0121437D02*
X0034000Y0121437D01*
X0034000Y0122224D02*
X0029457Y0122224D01*
X0029457Y0125071D01*
X0029559Y0125453D01*
X0029756Y0125795D01*
X0030036Y0126074D01*
X0030378Y0126272D01*
X0030759Y0126374D01*
X0034000Y0126374D01*
X0034000Y0122224D01*
X0034000Y0122436D02*
X0035000Y0122436D01*
X0035000Y0123434D02*
X0034000Y0123434D01*
X0034000Y0124433D02*
X0035000Y0124433D01*
X0035000Y0125431D02*
X0034000Y0125431D01*
X0035000Y0121437D02*
X0072967Y0121437D01*
X0072967Y0120439D02*
X0062418Y0120439D01*
X0063417Y0119440D02*
X0072967Y0119440D01*
X0072967Y0118442D02*
X0064034Y0118442D01*
X0064034Y0117443D02*
X0073759Y0117443D01*
X0073950Y0117437D02*
X0089550Y0117437D01*
X0089875Y0117762D01*
X0090410Y0118442D02*
X0088178Y0118442D01*
X0088178Y0118235D02*
X0088178Y0119101D01*
X0089750Y0119101D01*
X0092098Y0116753D01*
X0089978Y0116753D01*
X0088852Y0115627D01*
X0088178Y0115627D01*
X0088178Y0116493D01*
X0087308Y0117364D01*
X0088178Y0118235D01*
X0087387Y0117443D02*
X0091408Y0117443D01*
X0089669Y0116444D02*
X0088178Y0116444D01*
X0091175Y0113862D02*
X0090740Y0113427D01*
X0080573Y0113427D01*
X0081286Y0120587D02*
X0080573Y0121301D01*
X0090661Y0121301D01*
X0095750Y0116212D01*
X0095750Y0098087D01*
X0093550Y0099975D02*
X0092859Y0099285D01*
X0092859Y0097017D01*
X0092159Y0097017D01*
X0090697Y0098478D01*
X0088303Y0098478D01*
X0088178Y0098354D01*
X0088178Y0100745D01*
X0087308Y0101616D01*
X0087859Y0102168D01*
X0087859Y0101265D01*
X0089553Y0099572D01*
X0091947Y0099572D01*
X0093550Y0101175D01*
X0093550Y0099975D01*
X0093550Y0100468D02*
X0092844Y0100468D01*
X0093045Y0099470D02*
X0088178Y0099470D01*
X0088178Y0100468D02*
X0088656Y0100468D01*
X0087859Y0101467D02*
X0087457Y0101467D01*
X0087600Y0101837D02*
X0072650Y0101837D01*
X0069725Y0104762D01*
X0070000Y0105461D02*
X0069000Y0105461D01*
X0069000Y0106459D02*
X0070000Y0106459D01*
X0070000Y0107458D02*
X0069000Y0107458D01*
X0066315Y0108456D02*
X0072967Y0108456D01*
X0073625Y0109312D02*
X0087925Y0109312D01*
X0087343Y0109455D02*
X0093550Y0109455D01*
X0093550Y0110453D02*
X0088178Y0110453D01*
X0088178Y0110361D02*
X0088178Y0111227D01*
X0089723Y0111227D01*
X0089978Y0110972D01*
X0092372Y0110972D01*
X0093550Y0112150D01*
X0093550Y0103750D01*
X0091947Y0105353D01*
X0090971Y0105353D01*
X0088571Y0107753D01*
X0088178Y0107753D01*
X0088178Y0108619D01*
X0087308Y0109490D01*
X0088178Y0110361D01*
X0088178Y0108456D02*
X0093550Y0108456D01*
X0093550Y0107458D02*
X0088866Y0107458D01*
X0089864Y0106459D02*
X0093550Y0106459D01*
X0093550Y0105461D02*
X0090863Y0105461D01*
X0092838Y0104462D02*
X0093550Y0104462D01*
X0090750Y0102462D02*
X0087659Y0105553D01*
X0080573Y0105553D01*
X0073803Y0109455D02*
X0066315Y0109455D01*
X0066315Y0110453D02*
X0072967Y0110453D01*
X0072967Y0111452D02*
X0065983Y0111452D01*
X0062380Y0114447D02*
X0072967Y0114447D01*
X0072967Y0113449D02*
X0053975Y0113449D01*
X0053975Y0112450D02*
X0072967Y0112450D01*
X0072967Y0115446D02*
X0063378Y0115446D01*
X0064034Y0116444D02*
X0072967Y0116444D01*
X0072967Y0122436D02*
X0039543Y0122436D01*
X0039543Y0123434D02*
X0072967Y0123434D01*
X0073033Y0124433D02*
X0039543Y0124433D01*
X0039447Y0125431D02*
X0073645Y0125431D01*
X0073950Y0125237D02*
X0087925Y0125237D01*
X0087501Y0125431D02*
X0138212Y0125431D01*
X0138405Y0125238D02*
X0137534Y0124367D01*
X0137534Y0118235D01*
X0138405Y0117364D01*
X0137534Y0116493D01*
X0137534Y0110361D01*
X0138405Y0109490D01*
X0137534Y0108619D01*
X0137534Y0102487D01*
X0138530Y0101491D01*
X0138849Y0101491D01*
X0138655Y0101439D01*
X0138313Y0101241D01*
X0138034Y0100962D01*
X0137836Y0100620D01*
X0137734Y0100239D01*
X0137734Y0098179D01*
X0144640Y0098179D01*
X0144640Y0097179D01*
X0145640Y0097179D01*
X0145640Y0093817D01*
X0151050Y0093817D01*
X0151050Y0089375D01*
X0150072Y0090353D01*
X0147678Y0090353D01*
X0145984Y0088660D01*
X0145984Y0086265D01*
X0147300Y0084950D01*
X0147300Y0081725D01*
X0146918Y0081344D01*
X0146918Y0081692D01*
X0146360Y0083040D01*
X0145450Y0083950D01*
X0145450Y0086499D01*
X0144161Y0087787D01*
X0142286Y0089662D01*
X0142013Y0089662D01*
X0141322Y0090353D01*
X0138928Y0090353D01*
X0137785Y0089210D01*
X0137785Y0094931D01*
X0137836Y0094738D01*
X0138034Y0094396D01*
X0138313Y0094116D01*
X0138655Y0093919D01*
X0139037Y0093817D01*
X0144640Y0093817D01*
X0144640Y0097179D01*
X0137734Y0097179D01*
X0137734Y0096071D01*
X0136789Y0097017D01*
X0130656Y0097017D01*
X0129785Y0096146D01*
X0128915Y0097017D01*
X0122782Y0097017D01*
X0121911Y0096146D01*
X0121041Y0097017D01*
X0114908Y0097017D01*
X0114037Y0096146D01*
X0113167Y0097017D01*
X0107034Y0097017D01*
X0106163Y0096146D01*
X0105293Y0097017D01*
X0099160Y0097017D01*
X0098289Y0096146D01*
X0098093Y0096342D01*
X0098641Y0096890D01*
X0098641Y0099285D01*
X0097950Y0099975D01*
X0097950Y0117124D01*
X0092861Y0122212D01*
X0091573Y0123501D01*
X0088178Y0123501D01*
X0088178Y0124367D01*
X0087308Y0125238D01*
X0088178Y0126109D01*
X0088178Y0132241D01*
X0087308Y0133112D01*
X0088178Y0133983D01*
X0088178Y0140115D01*
X0087308Y0140986D01*
X0088178Y0141857D01*
X0088178Y0147989D01*
X0087308Y0148860D01*
X0088178Y0149731D01*
X0088178Y0150597D01*
X0128879Y0150597D01*
X0131675Y0147801D01*
X0131675Y0136499D01*
X0131675Y0134676D01*
X0135464Y0130887D01*
X0137534Y0130887D01*
X0137534Y0126109D01*
X0138405Y0125238D01*
X0137599Y0124433D02*
X0088113Y0124433D01*
X0088178Y0126430D02*
X0137534Y0126430D01*
X0137534Y0127428D02*
X0088178Y0127428D01*
X0088178Y0128427D02*
X0137534Y0128427D01*
X0137534Y0129425D02*
X0088178Y0129425D01*
X0088178Y0130424D02*
X0137534Y0130424D01*
X0134929Y0131422D02*
X0088178Y0131422D01*
X0087999Y0132421D02*
X0133930Y0132421D01*
X0132932Y0133419D02*
X0087615Y0133419D01*
X0088178Y0134418D02*
X0131933Y0134418D01*
X0131675Y0135416D02*
X0088178Y0135416D01*
X0088178Y0136415D02*
X0131675Y0136415D01*
X0131675Y0137413D02*
X0088178Y0137413D01*
X0088178Y0138412D02*
X0131675Y0138412D01*
X0131675Y0139410D02*
X0088178Y0139410D01*
X0087885Y0140409D02*
X0131675Y0140409D01*
X0131675Y0141407D02*
X0087729Y0141407D01*
X0088178Y0142406D02*
X0131675Y0142406D01*
X0131675Y0143404D02*
X0088178Y0143404D01*
X0088178Y0144403D02*
X0131675Y0144403D01*
X0131675Y0145401D02*
X0088178Y0145401D01*
X0088178Y0146400D02*
X0131675Y0146400D01*
X0131675Y0147398D02*
X0088178Y0147398D01*
X0087771Y0148397D02*
X0131079Y0148397D01*
X0130081Y0149395D02*
X0087843Y0149395D01*
X0087925Y0148962D02*
X0073950Y0148962D01*
X0073303Y0149395D02*
X0067950Y0149395D01*
X0067950Y0148397D02*
X0073375Y0148397D01*
X0072967Y0147398D02*
X0067950Y0147398D01*
X0067950Y0146400D02*
X0072201Y0146400D01*
X0071203Y0145401D02*
X0067950Y0145401D01*
X0067950Y0144403D02*
X0070204Y0144403D01*
X0069206Y0143404D02*
X0067950Y0143404D01*
X0067950Y0142406D02*
X0068207Y0142406D01*
X0069500Y0140587D02*
X0073836Y0144923D01*
X0080573Y0144923D01*
X0088178Y0150394D02*
X0129082Y0150394D01*
X0129790Y0152797D02*
X0133875Y0148712D01*
X0133875Y0135587D01*
X0136375Y0133087D01*
X0154500Y0133087D01*
X0157000Y0130587D01*
X0160125Y0130587D01*
X0182000Y0108712D01*
X0182000Y0096212D01*
X0186375Y0091837D01*
X0192000Y0091837D01*
X0188784Y0087737D02*
X0195216Y0087737D01*
X0196722Y0088362D01*
X0197876Y0089515D01*
X0198500Y0091022D01*
X0198500Y0092653D01*
X0197876Y0094160D01*
X0196722Y0095313D01*
X0195216Y0095937D01*
X0188784Y0095937D01*
X0187278Y0095313D01*
X0186644Y0094680D01*
X0184200Y0097124D01*
X0184200Y0100276D01*
X0184839Y0099637D01*
X0186073Y0099637D01*
X0186124Y0099515D01*
X0187278Y0098362D01*
X0188784Y0097737D01*
X0195216Y0097737D01*
X0196722Y0098362D01*
X0197876Y0099515D01*
X0198500Y0101022D01*
X0198500Y0102653D01*
X0197876Y0104160D01*
X0196722Y0105313D01*
X0195216Y0105937D01*
X0188784Y0105937D01*
X0187278Y0105313D01*
X0186700Y0104736D01*
X0186700Y0108939D01*
X0187278Y0108362D01*
X0188784Y0107737D01*
X0195216Y0107737D01*
X0196722Y0108362D01*
X0197876Y0109515D01*
X0197927Y0109637D01*
X0198536Y0109637D01*
X0199825Y0110926D01*
X0201075Y0112176D01*
X0201075Y0126499D01*
X0199786Y0127787D01*
X0198536Y0129037D01*
X0174336Y0129037D01*
X0165891Y0137483D01*
X0165891Y0137591D01*
X0166500Y0137591D01*
X0166500Y0140953D01*
X0167500Y0140953D01*
X0167500Y0137591D01*
X0169560Y0137591D01*
X0169941Y0137694D01*
X0170283Y0137891D01*
X0170562Y0138170D01*
X0170760Y0138512D01*
X0170862Y0138894D01*
X0170862Y0140954D01*
X0167500Y0140954D01*
X0167500Y0141954D01*
X0166500Y0141954D01*
X0166500Y0145316D01*
X0164440Y0145316D01*
X0164059Y0145214D01*
X0163717Y0145016D01*
X0163438Y0144737D01*
X0163240Y0144395D01*
X0163138Y0144013D01*
X0163138Y0141954D01*
X0166500Y0141954D01*
X0166500Y0140954D01*
X0163138Y0140954D01*
X0163138Y0140153D01*
X0162737Y0140153D01*
X0162737Y0140954D01*
X0159375Y0140954D01*
X0159375Y0141954D01*
X0158375Y0141954D01*
X0158375Y0145316D01*
X0156315Y0145316D01*
X0155934Y0145214D01*
X0155592Y0145016D01*
X0155313Y0144737D01*
X0155115Y0144395D01*
X0155013Y0144013D01*
X0155013Y0142561D01*
X0152745Y0144828D01*
X0152745Y0146447D01*
X0155021Y0146447D01*
X0155809Y0145659D01*
X0161941Y0145659D01*
X0162937Y0146655D01*
X0162937Y0152788D01*
X0161941Y0153783D01*
X0157441Y0153783D01*
X0157441Y0155353D01*
X0156910Y0155883D01*
X0201350Y0155883D01*
X0201350Y0023087D01*
X0120397Y0023087D01*
X0120984Y0023675D01*
X0121700Y0025402D01*
X0121700Y0033272D01*
X0120984Y0035000D01*
X0119662Y0036322D01*
X0117935Y0037037D01*
X0116065Y0037037D01*
X0115249Y0036699D01*
X0107104Y0044845D01*
X0107104Y0050669D01*
X0107773Y0050669D01*
X0108391Y0051287D01*
X0108510Y0051169D01*
X0108852Y0050971D01*
X0109234Y0050869D01*
X0111112Y0050869D01*
X0111112Y0053853D01*
X0112081Y0053853D01*
X0112081Y0054822D01*
X0111112Y0054822D01*
X0111112Y0057806D01*
X0109234Y0057806D01*
X0108852Y0057704D01*
X0108510Y0057506D01*
X0108391Y0057388D01*
X0107773Y0058006D01*
X0107104Y0058006D01*
X0107104Y0059222D01*
X0107576Y0059222D01*
X0108250Y0059896D01*
X0108924Y0059222D01*
X0114269Y0059222D01*
X0115265Y0060218D01*
X0115265Y0060887D01*
X0124486Y0060887D01*
X0125775Y0062176D01*
X0125775Y0062176D01*
X0128171Y0064572D01*
X0129147Y0064572D01*
X0130841Y0066265D01*
X0130841Y0068660D01*
X0129147Y0070353D01*
X0126753Y0070353D01*
X0125059Y0068660D01*
X0125059Y0067683D01*
X0122664Y0065287D01*
X0115265Y0065287D01*
X0115265Y0065957D01*
X0114709Y0066512D01*
X0120112Y0066512D01*
X0120803Y0065822D01*
X0123197Y0065822D01*
X0124891Y0067515D01*
X0124891Y0069910D01*
X0123197Y0071603D01*
X0120803Y0071603D01*
X0120112Y0070912D01*
X0107013Y0070912D01*
X0105788Y0072137D01*
X0132339Y0072137D01*
X0143589Y0060887D01*
X0145411Y0060887D01*
X0150359Y0060887D01*
X0150359Y0060640D01*
X0152053Y0058947D01*
X0154447Y0058947D01*
X0155138Y0059637D01*
X0171883Y0059637D01*
X0172693Y0060447D01*
X0176120Y0060447D01*
X0177115Y0061443D01*
X0177115Y0064466D01*
X0177911Y0065262D01*
X0178335Y0065262D01*
X0178335Y0064600D01*
X0181516Y0064600D01*
X0181516Y0063632D01*
X0182484Y0063632D01*
X0182484Y0064600D01*
X0185665Y0064600D01*
X0185665Y0066282D01*
X0185563Y0066663D01*
X0185366Y0067005D01*
X0185086Y0067285D01*
X0185040Y0067311D01*
X0185865Y0068136D01*
X0185865Y0068609D01*
X0187081Y0068609D01*
X0187081Y0067939D01*
X0187700Y0067321D01*
X0187581Y0067202D01*
X0187384Y0066860D01*
X0187281Y0066479D01*
X0187281Y0064600D01*
X0190266Y0064600D01*
X0190266Y0063632D01*
X0191234Y0063632D01*
X0191234Y0064600D01*
X0194218Y0064600D01*
X0194218Y0066479D01*
X0194116Y0066860D01*
X0193919Y0067202D01*
X0193800Y0067321D01*
X0194418Y0067939D01*
X0194418Y0073678D01*
X0193423Y0074674D01*
X0188077Y0074674D01*
X0187081Y0073678D01*
X0187081Y0073009D01*
X0185865Y0073009D01*
X0185865Y0073482D01*
X0184870Y0074477D01*
X0179130Y0074477D01*
X0178135Y0073482D01*
X0178135Y0070055D01*
X0177742Y0069662D01*
X0177115Y0069662D01*
X0177115Y0073482D01*
X0176120Y0074477D01*
X0170400Y0074477D01*
X0170400Y0075124D01*
X0170200Y0075324D01*
X0171141Y0076265D01*
X0171141Y0078660D01*
X0170450Y0079350D01*
X0170450Y0090874D01*
X0169825Y0091499D01*
X0169186Y0092137D01*
X0171987Y0092137D01*
X0172678Y0091447D01*
X0175072Y0091447D01*
X0176766Y0093140D01*
X0176766Y0095535D01*
X0175072Y0097228D01*
X0172678Y0097228D01*
X0171987Y0096537D01*
X0163888Y0096537D01*
X0163197Y0097228D01*
X0163165Y0097228D01*
X0163165Y0098007D01*
X0159984Y0098007D01*
X0159984Y0098975D01*
X0163165Y0098975D01*
X0163165Y0100657D01*
X0163063Y0101038D01*
X0162866Y0101380D01*
X0162586Y0101660D01*
X0162540Y0101686D01*
X0163365Y0102511D01*
X0163365Y0104509D01*
X0163928Y0103947D01*
X0166322Y0103947D01*
X0168016Y0105640D01*
X0168016Y0106447D01*
X0169447Y0106447D01*
X0170138Y0107137D01*
X0175464Y0107137D01*
X0176609Y0105992D01*
X0176609Y0105015D01*
X0178303Y0103322D01*
X0179800Y0103322D01*
X0179800Y0095301D01*
X0184175Y0090926D01*
X0185464Y0089637D01*
X0186073Y0089637D01*
X0186124Y0089515D01*
X0187278Y0088362D01*
X0188784Y0087737D01*
X0187153Y0088486D02*
X0170450Y0088486D01*
X0170450Y0087488D02*
X0201350Y0087488D01*
X0201350Y0088486D02*
X0196847Y0088486D01*
X0197846Y0089485D02*
X0201350Y0089485D01*
X0201350Y0090483D02*
X0198277Y0090483D01*
X0198500Y0091482D02*
X0201350Y0091482D01*
X0201350Y0092480D02*
X0198500Y0092480D01*
X0198158Y0093479D02*
X0201350Y0093479D01*
X0201350Y0094477D02*
X0197558Y0094477D01*
X0196330Y0095476D02*
X0201350Y0095476D01*
X0201350Y0096474D02*
X0184849Y0096474D01*
X0184200Y0097473D02*
X0201350Y0097473D01*
X0201350Y0098471D02*
X0196832Y0098471D01*
X0197831Y0099470D02*
X0201350Y0099470D01*
X0201350Y0100468D02*
X0198271Y0100468D01*
X0198500Y0101467D02*
X0201350Y0101467D01*
X0201350Y0102465D02*
X0198500Y0102465D01*
X0198164Y0103464D02*
X0201350Y0103464D01*
X0201350Y0104462D02*
X0197573Y0104462D01*
X0196366Y0105461D02*
X0201350Y0105461D01*
X0201350Y0106459D02*
X0186700Y0106459D01*
X0186700Y0105461D02*
X0187634Y0105461D01*
X0186700Y0107458D02*
X0201350Y0107458D01*
X0201350Y0108456D02*
X0196817Y0108456D01*
X0197816Y0109455D02*
X0201350Y0109455D01*
X0201350Y0110453D02*
X0199352Y0110453D01*
X0200351Y0111452D02*
X0201350Y0111452D01*
X0201350Y0112450D02*
X0201075Y0112450D01*
X0201075Y0113449D02*
X0201350Y0113449D01*
X0201350Y0114447D02*
X0201075Y0114447D01*
X0201075Y0115446D02*
X0201350Y0115446D01*
X0201350Y0116444D02*
X0201075Y0116444D01*
X0201075Y0117443D02*
X0201350Y0117443D01*
X0201350Y0118442D02*
X0201075Y0118442D01*
X0201075Y0119440D02*
X0201350Y0119440D01*
X0201350Y0120439D02*
X0201075Y0120439D01*
X0201075Y0121437D02*
X0201350Y0121437D01*
X0201350Y0122436D02*
X0201075Y0122436D01*
X0201075Y0123434D02*
X0201350Y0123434D01*
X0201350Y0124433D02*
X0201075Y0124433D01*
X0201075Y0125431D02*
X0201350Y0125431D01*
X0201350Y0126430D02*
X0201075Y0126430D01*
X0201350Y0127428D02*
X0200146Y0127428D01*
X0199147Y0128427D02*
X0201350Y0128427D01*
X0201350Y0129425D02*
X0173949Y0129425D01*
X0172950Y0130424D02*
X0183612Y0130424D01*
X0183718Y0130380D02*
X0184940Y0130009D01*
X0186193Y0129760D01*
X0187464Y0129635D01*
X0187602Y0129635D01*
X0187602Y0142135D01*
X0175102Y0142135D01*
X0175102Y0141996D01*
X0175228Y0140725D01*
X0175477Y0139472D01*
X0175848Y0138250D01*
X0176336Y0137070D01*
X0176938Y0135943D01*
X0177648Y0134881D01*
X0178458Y0133894D01*
X0179362Y0132991D01*
X0180349Y0132180D01*
X0181411Y0131471D01*
X0182537Y0130869D01*
X0183718Y0130380D01*
X0181502Y0131422D02*
X0171952Y0131422D01*
X0170953Y0132421D02*
X0180056Y0132421D01*
X0178933Y0133419D02*
X0169954Y0133419D01*
X0168956Y0134418D02*
X0178028Y0134418D01*
X0177291Y0135416D02*
X0167957Y0135416D01*
X0166959Y0136415D02*
X0176686Y0136415D01*
X0176194Y0137413D02*
X0165960Y0137413D01*
X0166500Y0138412D02*
X0167500Y0138412D01*
X0167500Y0139410D02*
X0166500Y0139410D01*
X0166500Y0140409D02*
X0167500Y0140409D01*
X0167500Y0141407D02*
X0175160Y0141407D01*
X0175290Y0140409D02*
X0170862Y0140409D01*
X0170862Y0139410D02*
X0175495Y0139410D01*
X0175798Y0138412D02*
X0170702Y0138412D01*
X0170862Y0141954D02*
X0167500Y0141954D01*
X0167500Y0145316D01*
X0169560Y0145316D01*
X0169941Y0145214D01*
X0170283Y0145016D01*
X0170562Y0144737D01*
X0170760Y0144395D01*
X0170862Y0144013D01*
X0170862Y0141954D01*
X0170862Y0142406D02*
X0187602Y0142406D01*
X0187602Y0142135D02*
X0187602Y0143135D01*
X0187602Y0155635D01*
X0187464Y0155635D01*
X0186193Y0155509D01*
X0184940Y0155260D01*
X0183718Y0154889D01*
X0182537Y0154401D01*
X0181411Y0153799D01*
X0180349Y0153089D01*
X0179362Y0152279D01*
X0178458Y0151375D01*
X0177648Y0150388D01*
X0176938Y0149326D01*
X0176336Y0148200D01*
X0175848Y0147019D01*
X0175477Y0145797D01*
X0175228Y0144544D01*
X0175102Y0143273D01*
X0175102Y0143135D01*
X0187602Y0143135D01*
X0188602Y0143135D01*
X0188602Y0155635D01*
X0188741Y0155635D01*
X0190012Y0155509D01*
X0191265Y0155260D01*
X0192487Y0154889D01*
X0193667Y0154401D01*
X0194794Y0153799D01*
X0195856Y0153089D01*
X0196843Y0152279D01*
X0197746Y0151375D01*
X0198557Y0150388D01*
X0199266Y0149326D01*
X0199868Y0148200D01*
X0200357Y0147019D01*
X0200728Y0145797D01*
X0200977Y0144544D01*
X0201102Y0143273D01*
X0201102Y0143135D01*
X0188602Y0143135D01*
X0188602Y0142135D01*
X0201102Y0142135D01*
X0201102Y0141996D01*
X0200977Y0140725D01*
X0200728Y0139472D01*
X0200357Y0138250D01*
X0199868Y0137070D01*
X0199266Y0135943D01*
X0198557Y0134881D01*
X0197746Y0133894D01*
X0196843Y0132991D01*
X0195856Y0132180D01*
X0194794Y0131471D01*
X0193667Y0130869D01*
X0192487Y0130380D01*
X0191265Y0130009D01*
X0190012Y0129760D01*
X0188741Y0129635D01*
X0188602Y0129635D01*
X0188602Y0142135D01*
X0187602Y0142135D01*
X0187602Y0141407D02*
X0188602Y0141407D01*
X0188602Y0140409D02*
X0187602Y0140409D01*
X0187602Y0139410D02*
X0188602Y0139410D01*
X0188602Y0138412D02*
X0187602Y0138412D01*
X0187602Y0137413D02*
X0188602Y0137413D01*
X0188602Y0136415D02*
X0187602Y0136415D01*
X0187602Y0135416D02*
X0188602Y0135416D01*
X0188602Y0134418D02*
X0187602Y0134418D01*
X0187602Y0133419D02*
X0188602Y0133419D01*
X0188602Y0132421D02*
X0187602Y0132421D01*
X0187602Y0131422D02*
X0188602Y0131422D01*
X0188602Y0130424D02*
X0187602Y0130424D01*
X0192593Y0130424D02*
X0201350Y0130424D01*
X0201350Y0131422D02*
X0194703Y0131422D01*
X0196149Y0132421D02*
X0201350Y0132421D01*
X0201350Y0133419D02*
X0197272Y0133419D01*
X0198176Y0134418D02*
X0201350Y0134418D01*
X0201350Y0135416D02*
X0198914Y0135416D01*
X0199518Y0136415D02*
X0201350Y0136415D01*
X0201350Y0137413D02*
X0200011Y0137413D01*
X0200406Y0138412D02*
X0201350Y0138412D01*
X0201350Y0139410D02*
X0200709Y0139410D01*
X0200914Y0140409D02*
X0201350Y0140409D01*
X0201350Y0141407D02*
X0201044Y0141407D01*
X0201350Y0142406D02*
X0188602Y0142406D01*
X0188602Y0143404D02*
X0187602Y0143404D01*
X0187602Y0144403D02*
X0188602Y0144403D01*
X0188602Y0145401D02*
X0187602Y0145401D01*
X0187602Y0146400D02*
X0188602Y0146400D01*
X0188602Y0147398D02*
X0187602Y0147398D01*
X0187602Y0148397D02*
X0188602Y0148397D01*
X0188602Y0149395D02*
X0187602Y0149395D01*
X0187602Y0150394D02*
X0188602Y0150394D01*
X0188602Y0151392D02*
X0187602Y0151392D01*
X0187602Y0152391D02*
X0188602Y0152391D01*
X0188602Y0153389D02*
X0187602Y0153389D01*
X0187602Y0154388D02*
X0188602Y0154388D01*
X0188602Y0155386D02*
X0187602Y0155386D01*
X0185574Y0155386D02*
X0157407Y0155386D01*
X0157441Y0154388D02*
X0182514Y0154388D01*
X0180799Y0153389D02*
X0170460Y0153389D01*
X0170066Y0153783D02*
X0163934Y0153783D01*
X0162938Y0152788D01*
X0162938Y0146655D01*
X0163934Y0145659D01*
X0170066Y0145659D01*
X0170854Y0146447D01*
X0172572Y0146447D01*
X0174266Y0148140D01*
X0174266Y0150535D01*
X0172572Y0152228D01*
X0171062Y0152228D01*
X0171062Y0152788D01*
X0170066Y0153783D01*
X0171062Y0152391D02*
X0179498Y0152391D01*
X0178475Y0151392D02*
X0173408Y0151392D01*
X0174266Y0150394D02*
X0177653Y0150394D01*
X0176985Y0149395D02*
X0174266Y0149395D01*
X0174266Y0148397D02*
X0176442Y0148397D01*
X0176004Y0147398D02*
X0173524Y0147398D01*
X0175660Y0146400D02*
X0170807Y0146400D01*
X0170755Y0144403D02*
X0175214Y0144403D01*
X0175115Y0143404D02*
X0170862Y0143404D01*
X0167500Y0143404D02*
X0166500Y0143404D01*
X0166500Y0142406D02*
X0167500Y0142406D01*
X0166500Y0141407D02*
X0159375Y0141407D01*
X0159375Y0141954D02*
X0162737Y0141954D01*
X0162737Y0144013D01*
X0162635Y0144395D01*
X0162437Y0144737D01*
X0162158Y0145016D01*
X0161816Y0145214D01*
X0161435Y0145316D01*
X0159375Y0145316D01*
X0159375Y0141954D01*
X0159375Y0142406D02*
X0158375Y0142406D01*
X0158375Y0143404D02*
X0159375Y0143404D01*
X0159375Y0144403D02*
X0158375Y0144403D01*
X0155120Y0144403D02*
X0153171Y0144403D01*
X0152745Y0145401D02*
X0175398Y0145401D01*
X0171375Y0149337D02*
X0166759Y0149337D01*
X0167000Y0149721D01*
X0162938Y0149395D02*
X0162937Y0149395D01*
X0162937Y0148397D02*
X0162938Y0148397D01*
X0162937Y0147398D02*
X0162938Y0147398D01*
X0162682Y0146400D02*
X0163193Y0146400D01*
X0163245Y0144403D02*
X0162630Y0144403D01*
X0162737Y0143404D02*
X0163138Y0143404D01*
X0163138Y0142406D02*
X0162737Y0142406D01*
X0162737Y0140409D02*
X0163138Y0140409D01*
X0163000Y0137262D02*
X0173425Y0126837D01*
X0197625Y0126837D01*
X0198875Y0125587D01*
X0198875Y0113087D01*
X0197625Y0111837D01*
X0192000Y0111837D01*
X0195216Y0115937D02*
X0188784Y0115937D01*
X0187278Y0115313D01*
X0186124Y0114160D01*
X0186063Y0114011D01*
X0175436Y0124637D01*
X0186602Y0124637D01*
X0186124Y0124160D01*
X0185500Y0122653D01*
X0185500Y0121022D01*
X0186124Y0119515D01*
X0187278Y0118362D01*
X0188784Y0117737D01*
X0195216Y0117737D01*
X0196675Y0118342D01*
X0196675Y0115333D01*
X0195216Y0115937D01*
X0196402Y0115446D02*
X0196675Y0115446D01*
X0196675Y0116444D02*
X0183629Y0116444D01*
X0184628Y0115446D02*
X0187598Y0115446D01*
X0186412Y0114447D02*
X0185626Y0114447D01*
X0184500Y0112462D02*
X0172000Y0124962D01*
X0165125Y0131837D01*
X0162625Y0131837D01*
X0159500Y0134962D01*
X0158250Y0134962D01*
X0153250Y0139962D01*
X0153250Y0141212D01*
X0149539Y0144923D01*
X0145140Y0144923D01*
X0150975Y0148962D02*
X0137650Y0148962D01*
X0137870Y0149395D02*
X0136075Y0149395D01*
X0136075Y0149624D02*
X0130702Y0154997D01*
X0128879Y0154997D01*
X0088178Y0154997D01*
X0088178Y0155863D01*
X0088159Y0155883D01*
X0137554Y0155883D01*
X0137534Y0155863D01*
X0137534Y0149731D01*
X0138405Y0148860D01*
X0137534Y0147989D01*
X0137534Y0141857D01*
X0138405Y0140986D01*
X0137534Y0140115D01*
X0137534Y0135287D01*
X0137286Y0135287D01*
X0136075Y0136499D01*
X0136075Y0149624D01*
X0135305Y0150394D02*
X0137534Y0150394D01*
X0137534Y0151392D02*
X0134306Y0151392D01*
X0133308Y0152391D02*
X0137534Y0152391D01*
X0137534Y0153389D02*
X0132309Y0153389D01*
X0131311Y0154388D02*
X0137534Y0154388D01*
X0137534Y0155386D02*
X0088178Y0155386D01*
X0080573Y0152797D02*
X0129790Y0152797D01*
X0136075Y0148397D02*
X0137942Y0148397D01*
X0137534Y0147398D02*
X0136075Y0147398D01*
X0136075Y0146400D02*
X0137534Y0146400D01*
X0137534Y0145401D02*
X0136075Y0145401D01*
X0136075Y0144403D02*
X0137534Y0144403D01*
X0137534Y0143404D02*
X0136075Y0143404D01*
X0136075Y0142406D02*
X0137534Y0142406D01*
X0137984Y0141407D02*
X0136075Y0141407D01*
X0136075Y0140409D02*
X0137828Y0140409D01*
X0137325Y0140837D02*
X0150975Y0140837D01*
X0154169Y0143404D02*
X0155013Y0143404D01*
X0155068Y0146400D02*
X0152745Y0146400D01*
X0153875Y0149337D02*
X0158491Y0149337D01*
X0158875Y0149721D01*
X0162937Y0150394D02*
X0162938Y0150394D01*
X0162937Y0151392D02*
X0162938Y0151392D01*
X0162937Y0152391D02*
X0162938Y0152391D01*
X0163540Y0153389D02*
X0162335Y0153389D01*
X0154550Y0154155D02*
X0153624Y0154155D01*
X0152266Y0152797D01*
X0145140Y0152797D01*
X0137534Y0139410D02*
X0136075Y0139410D01*
X0136075Y0138412D02*
X0137534Y0138412D01*
X0137534Y0137413D02*
X0136075Y0137413D01*
X0136159Y0136415D02*
X0137534Y0136415D01*
X0137534Y0135416D02*
X0137157Y0135416D01*
X0145140Y0137049D02*
X0152413Y0137049D01*
X0153250Y0136212D01*
X0151537Y0129175D02*
X0154500Y0126212D01*
X0154037Y0126675D01*
X0151300Y0125237D02*
X0135700Y0125237D01*
X0137534Y0123434D02*
X0091640Y0123434D01*
X0092638Y0122436D02*
X0137534Y0122436D01*
X0137534Y0121437D02*
X0093637Y0121437D01*
X0094635Y0120439D02*
X0137534Y0120439D01*
X0137534Y0119440D02*
X0095634Y0119440D01*
X0096632Y0118442D02*
X0137534Y0118442D01*
X0138326Y0117443D02*
X0097631Y0117443D01*
X0097950Y0116444D02*
X0137534Y0116444D01*
X0137534Y0115446D02*
X0097950Y0115446D01*
X0097950Y0114447D02*
X0137534Y0114447D01*
X0137534Y0113449D02*
X0097950Y0113449D01*
X0097950Y0112450D02*
X0137534Y0112450D01*
X0137534Y0111452D02*
X0097950Y0111452D01*
X0097950Y0110453D02*
X0137534Y0110453D01*
X0138370Y0109455D02*
X0097950Y0109455D01*
X0097950Y0108456D02*
X0137534Y0108456D01*
X0137534Y0107458D02*
X0097950Y0107458D01*
X0097950Y0106459D02*
X0137534Y0106459D01*
X0137534Y0105461D02*
X0097950Y0105461D01*
X0097950Y0104462D02*
X0137534Y0104462D01*
X0137534Y0103464D02*
X0097950Y0103464D01*
X0097950Y0102465D02*
X0137555Y0102465D01*
X0138759Y0101467D02*
X0097950Y0101467D01*
X0097950Y0100468D02*
X0137796Y0100468D01*
X0137734Y0099470D02*
X0098455Y0099470D01*
X0098641Y0098471D02*
X0137734Y0098471D01*
X0137734Y0096474D02*
X0137331Y0096474D01*
X0137785Y0094477D02*
X0137987Y0094477D01*
X0137785Y0093479D02*
X0151050Y0093479D01*
X0151050Y0092480D02*
X0137785Y0092480D01*
X0137785Y0091482D02*
X0151050Y0091482D01*
X0151050Y0090483D02*
X0137785Y0090483D01*
X0137785Y0089485D02*
X0138059Y0089485D01*
X0140125Y0087462D02*
X0141375Y0087462D01*
X0143250Y0085587D01*
X0143250Y0080962D01*
X0144483Y0077503D02*
X0147747Y0077503D01*
X0148303Y0076947D02*
X0146609Y0078640D01*
X0146609Y0079487D01*
X0146360Y0078884D01*
X0145328Y0077852D01*
X0143980Y0077294D01*
X0142520Y0077294D01*
X0141172Y0077852D01*
X0140140Y0078884D01*
X0139581Y0080233D01*
X0139581Y0081692D01*
X0140140Y0083040D01*
X0141050Y0083950D01*
X0141050Y0084572D01*
X0138928Y0084572D01*
X0137785Y0085715D01*
X0137785Y0082802D01*
X0136789Y0081806D01*
X0130656Y0081806D01*
X0129785Y0082676D01*
X0128915Y0081806D01*
X0122782Y0081806D01*
X0121911Y0082676D01*
X0121041Y0081806D01*
X0114908Y0081806D01*
X0114037Y0082676D01*
X0113167Y0081806D01*
X0107034Y0081806D01*
X0106163Y0082676D01*
X0105293Y0081806D01*
X0099900Y0081806D01*
X0099900Y0081423D01*
X0102311Y0079012D01*
X0136286Y0079012D01*
X0137575Y0077724D01*
X0139861Y0075437D01*
X0140312Y0075437D01*
X0141003Y0076128D01*
X0143397Y0076128D01*
X0145091Y0074435D01*
X0145091Y0072040D01*
X0143397Y0070347D01*
X0141003Y0070347D01*
X0140312Y0071037D01*
X0139861Y0071037D01*
X0139661Y0071037D01*
X0145411Y0065287D01*
X0149214Y0065287D01*
X0150464Y0066537D01*
X0162234Y0066537D01*
X0162234Y0068660D01*
X0163928Y0070353D01*
X0164904Y0070353D01*
X0166000Y0071449D01*
X0166000Y0072150D01*
X0165172Y0071322D01*
X0162778Y0071322D01*
X0161084Y0073015D01*
X0161084Y0073992D01*
X0157350Y0077726D01*
X0157350Y0089525D01*
X0156659Y0090215D01*
X0156659Y0092610D01*
X0158353Y0094303D01*
X0159109Y0094303D01*
X0159109Y0095535D01*
X0159984Y0096409D01*
X0159984Y0098007D01*
X0159016Y0098007D01*
X0159016Y0095022D01*
X0157137Y0095022D01*
X0156756Y0095125D01*
X0156414Y0095322D01*
X0156134Y0095601D01*
X0155937Y0095943D01*
X0155835Y0096325D01*
X0155835Y0098007D01*
X0159016Y0098007D01*
X0159016Y0098975D01*
X0155835Y0098975D01*
X0155835Y0100657D01*
X0155937Y0101038D01*
X0156134Y0101380D01*
X0156414Y0101660D01*
X0156460Y0101686D01*
X0155710Y0102436D01*
X0155450Y0102176D01*
X0155450Y0075600D01*
X0156141Y0074910D01*
X0156141Y0072515D01*
X0154447Y0070822D01*
X0152053Y0070822D01*
X0150359Y0072515D01*
X0150359Y0074910D01*
X0151050Y0075600D01*
X0151050Y0077300D01*
X0150697Y0076947D01*
X0148303Y0076947D01*
X0146748Y0078501D02*
X0145977Y0078501D01*
X0144020Y0075506D02*
X0150955Y0075506D01*
X0151050Y0076504D02*
X0138795Y0076504D01*
X0139793Y0075506D02*
X0140380Y0075506D01*
X0142017Y0077503D02*
X0137796Y0077503D01*
X0136798Y0078501D02*
X0140523Y0078501D01*
X0139885Y0079500D02*
X0101824Y0079500D01*
X0100826Y0080498D02*
X0139581Y0080498D01*
X0139581Y0081497D02*
X0099900Y0081497D01*
X0097010Y0081203D02*
X0101400Y0076812D01*
X0135375Y0076812D01*
X0138950Y0073237D01*
X0142200Y0073237D01*
X0145091Y0073509D02*
X0150359Y0073509D01*
X0150359Y0074507D02*
X0145018Y0074507D01*
X0145091Y0072510D02*
X0150365Y0072510D01*
X0151363Y0071511D02*
X0144562Y0071511D01*
X0143563Y0070513D02*
X0165064Y0070513D01*
X0165362Y0071511D02*
X0166000Y0071511D01*
X0168200Y0070537D02*
X0165125Y0067462D01*
X0163089Y0069514D02*
X0141184Y0069514D01*
X0140837Y0070513D02*
X0140186Y0070513D01*
X0142183Y0068516D02*
X0162234Y0068516D01*
X0162234Y0067517D02*
X0143181Y0067517D01*
X0144180Y0066519D02*
X0150445Y0066519D01*
X0149447Y0065520D02*
X0145178Y0065520D01*
X0144500Y0063087D02*
X0133250Y0074337D01*
X0098250Y0074337D01*
X0094500Y0078087D01*
X0091375Y0078087D01*
X0087182Y0082280D01*
X0078250Y0082280D01*
X0072955Y0082280D01*
X0068762Y0078087D01*
X0063912Y0078501D02*
X0058238Y0078501D01*
X0058238Y0078587D02*
X0062388Y0078587D01*
X0062388Y0081828D01*
X0062325Y0082062D01*
X0063912Y0082062D01*
X0063912Y0073840D01*
X0064563Y0073189D01*
X0064109Y0072735D01*
X0064109Y0070340D01*
X0065262Y0069187D01*
X0063212Y0069187D01*
X0063212Y0070616D01*
X0061404Y0072425D01*
X0058846Y0072425D01*
X0058193Y0071772D01*
X0056921Y0073044D01*
X0057238Y0073044D01*
X0057238Y0077587D01*
X0058238Y0077587D01*
X0058238Y0073044D01*
X0061085Y0073044D01*
X0061467Y0073146D01*
X0061809Y0073344D01*
X0062088Y0073623D01*
X0062286Y0073965D01*
X0062388Y0074347D01*
X0062388Y0077587D01*
X0058238Y0077587D01*
X0058238Y0078587D01*
X0057238Y0078587D02*
X0057238Y0077587D01*
X0053089Y0077587D01*
X0053089Y0074562D01*
X0036903Y0074562D01*
X0031662Y0079803D01*
X0031808Y0079803D01*
X0033482Y0078129D01*
X0034548Y0077687D01*
X0050702Y0077687D01*
X0051768Y0078129D01*
X0052583Y0078945D01*
X0053089Y0079450D01*
X0053089Y0078587D01*
X0057238Y0078587D01*
X0057238Y0078501D02*
X0052140Y0078501D01*
X0053089Y0077503D02*
X0033963Y0077503D01*
X0033110Y0078501D02*
X0032964Y0078501D01*
X0032112Y0079500D02*
X0031966Y0079500D01*
X0034961Y0076504D02*
X0053089Y0076504D01*
X0053089Y0075506D02*
X0035960Y0075506D01*
X0032450Y0072510D02*
X0027705Y0072510D01*
X0026707Y0073509D02*
X0031451Y0073509D01*
X0030453Y0074507D02*
X0025708Y0074507D01*
X0024710Y0075506D02*
X0029454Y0075506D01*
X0028456Y0076504D02*
X0023711Y0076504D01*
X0023450Y0077503D02*
X0027457Y0077503D01*
X0026459Y0078501D02*
X0023450Y0078501D01*
X0023252Y0079500D02*
X0025460Y0079500D01*
X0024462Y0080498D02*
X0022839Y0080498D01*
X0023463Y0081497D02*
X0021988Y0081497D01*
X0022465Y0082495D02*
X0020391Y0082495D01*
X0019941Y0083494D02*
X0021466Y0083494D01*
X0024976Y0086489D02*
X0051926Y0086489D01*
X0050927Y0085491D02*
X0034323Y0085491D01*
X0035321Y0084492D02*
X0049929Y0084492D01*
X0048930Y0083494D02*
X0036320Y0083494D01*
X0029759Y0085491D02*
X0025974Y0085491D01*
X0026973Y0084492D02*
X0028760Y0084492D01*
X0028716Y0083494D02*
X0027971Y0083494D01*
X0023977Y0087488D02*
X0053018Y0087488D01*
X0057238Y0077503D02*
X0058238Y0077503D01*
X0058238Y0076504D02*
X0057238Y0076504D01*
X0057238Y0075506D02*
X0058238Y0075506D01*
X0058238Y0074507D02*
X0057238Y0074507D01*
X0057238Y0073509D02*
X0058238Y0073509D01*
X0057455Y0072510D02*
X0064109Y0072510D01*
X0064109Y0071511D02*
X0062317Y0071511D01*
X0063212Y0070513D02*
X0064109Y0070513D01*
X0064935Y0069514D02*
X0063212Y0069514D01*
X0064244Y0073509D02*
X0061974Y0073509D01*
X0062388Y0074507D02*
X0063912Y0074507D01*
X0063912Y0075506D02*
X0062388Y0075506D01*
X0062388Y0076504D02*
X0063912Y0076504D01*
X0063912Y0077503D02*
X0062388Y0077503D01*
X0062388Y0079500D02*
X0063912Y0079500D01*
X0063912Y0080498D02*
X0062388Y0080498D01*
X0062388Y0081497D02*
X0063912Y0081497D01*
X0068868Y0086489D02*
X0074543Y0086489D01*
X0073597Y0085491D02*
X0069866Y0085491D01*
X0070321Y0084492D02*
X0073597Y0084492D01*
X0071057Y0083494D02*
X0070962Y0083494D01*
X0067232Y0087488D02*
X0081609Y0087488D01*
X0082061Y0088486D02*
X0023450Y0088486D01*
X0023258Y0089485D02*
X0083059Y0089485D01*
X0085035Y0090483D02*
X0022845Y0090483D01*
X0016190Y0098471D02*
X0015310Y0098471D01*
X0023749Y0102465D02*
X0026727Y0102465D01*
X0025707Y0103464D02*
X0023749Y0103464D01*
X0023749Y0104462D02*
X0024966Y0104462D01*
X0024950Y0105461D02*
X0024040Y0105461D01*
X0034000Y0117443D02*
X0035000Y0117443D01*
X0035000Y0118442D02*
X0034000Y0118442D01*
X0034000Y0119440D02*
X0035000Y0119440D01*
X0035000Y0120439D02*
X0034000Y0120439D01*
X0029457Y0120439D02*
X0020467Y0120439D01*
X0019293Y0119440D02*
X0029457Y0119440D01*
X0029457Y0124433D02*
X0021179Y0124433D01*
X0020689Y0125431D02*
X0029553Y0125431D01*
X0027239Y0130424D02*
X0065979Y0130424D01*
X0065831Y0129425D02*
X0009500Y0129425D01*
X0009500Y0128427D02*
X0065906Y0128427D01*
X0066320Y0127428D02*
X0009500Y0127428D01*
X0009500Y0130424D02*
X0018257Y0130424D01*
X0018363Y0130380D02*
X0019585Y0130009D01*
X0020838Y0129760D01*
X0022109Y0129635D01*
X0022248Y0129635D01*
X0022248Y0142135D01*
X0009748Y0142135D01*
X0009748Y0141996D01*
X0009873Y0140725D01*
X0010122Y0139472D01*
X0010493Y0138250D01*
X0010982Y0137070D01*
X0011584Y0135943D01*
X0012294Y0134881D01*
X0013104Y0133894D01*
X0014007Y0132991D01*
X0014995Y0132180D01*
X0016057Y0131471D01*
X0017183Y0130869D01*
X0018363Y0130380D01*
X0016147Y0131422D02*
X0009500Y0131422D01*
X0009500Y0132421D02*
X0014702Y0132421D01*
X0013579Y0133419D02*
X0009500Y0133419D01*
X0009500Y0134418D02*
X0012674Y0134418D01*
X0011936Y0135416D02*
X0009500Y0135416D01*
X0009500Y0136415D02*
X0011332Y0136415D01*
X0010840Y0137413D02*
X0009500Y0137413D01*
X0009500Y0138412D02*
X0010444Y0138412D01*
X0010141Y0139410D02*
X0009500Y0139410D01*
X0009500Y0140409D02*
X0009936Y0140409D01*
X0009806Y0141407D02*
X0009500Y0141407D01*
X0009500Y0142406D02*
X0022248Y0142406D01*
X0022248Y0142135D02*
X0022248Y0143135D01*
X0022248Y0155635D01*
X0022109Y0155635D01*
X0020838Y0155509D01*
X0019585Y0155260D01*
X0018363Y0154889D01*
X0017183Y0154401D01*
X0016057Y0153799D01*
X0014995Y0153089D01*
X0014007Y0152279D01*
X0013104Y0151375D01*
X0012294Y0150388D01*
X0011584Y0149326D01*
X0010982Y0148200D01*
X0010493Y0147019D01*
X0010122Y0145797D01*
X0009873Y0144544D01*
X0009748Y0143273D01*
X0009748Y0143135D01*
X0022248Y0143135D01*
X0023248Y0143135D01*
X0023248Y0155635D01*
X0023387Y0155635D01*
X0024658Y0155509D01*
X0025911Y0155260D01*
X0027133Y0154889D01*
X0028313Y0154401D01*
X0029439Y0153799D01*
X0030501Y0153089D01*
X0031489Y0152279D01*
X0032392Y0151375D01*
X0033202Y0150388D01*
X0033912Y0149326D01*
X0034514Y0148200D01*
X0035003Y0147019D01*
X0035374Y0145797D01*
X0035623Y0144544D01*
X0035748Y0143273D01*
X0035748Y0143135D01*
X0023248Y0143135D01*
X0023248Y0142135D01*
X0035748Y0142135D01*
X0035748Y0141996D01*
X0035623Y0140725D01*
X0035374Y0139472D01*
X0035003Y0138250D01*
X0034514Y0137070D01*
X0033912Y0135943D01*
X0033202Y0134881D01*
X0032392Y0133894D01*
X0031489Y0132991D01*
X0030501Y0132180D01*
X0029439Y0131471D01*
X0028313Y0130869D01*
X0027133Y0130380D01*
X0025911Y0130009D01*
X0024658Y0129760D01*
X0023387Y0129635D01*
X0023248Y0129635D01*
X0023248Y0142135D01*
X0022248Y0142135D01*
X0022248Y0141407D02*
X0023248Y0141407D01*
X0023248Y0140409D02*
X0022248Y0140409D01*
X0022248Y0139410D02*
X0023248Y0139410D01*
X0023248Y0138412D02*
X0022248Y0138412D01*
X0022248Y0137413D02*
X0023248Y0137413D01*
X0023248Y0136415D02*
X0022248Y0136415D01*
X0022248Y0135416D02*
X0023248Y0135416D01*
X0023248Y0134418D02*
X0022248Y0134418D01*
X0022248Y0133419D02*
X0023248Y0133419D01*
X0023248Y0132421D02*
X0022248Y0132421D01*
X0022248Y0131422D02*
X0023248Y0131422D01*
X0023248Y0130424D02*
X0022248Y0130424D01*
X0019745Y0126430D02*
X0067220Y0126430D01*
X0069662Y0129175D02*
X0069500Y0129337D01*
X0069662Y0129175D02*
X0080573Y0129175D01*
X0080573Y0137049D02*
X0074913Y0137049D01*
X0072413Y0134549D01*
X0072000Y0134962D01*
X0069109Y0134418D02*
X0032822Y0134418D01*
X0033560Y0135416D02*
X0053435Y0135416D01*
X0052436Y0136415D02*
X0034164Y0136415D01*
X0034656Y0137413D02*
X0051438Y0137413D01*
X0051049Y0138412D02*
X0044961Y0138412D01*
X0044977Y0138417D02*
X0045609Y0138739D01*
X0046182Y0139155D01*
X0046682Y0139656D01*
X0047099Y0140229D01*
X0047420Y0140860D01*
X0047639Y0141534D01*
X0047750Y0142233D01*
X0047750Y0145087D01*
X0043750Y0145087D01*
X0043750Y0138110D01*
X0044304Y0138198D01*
X0044977Y0138417D01*
X0043750Y0138412D02*
X0042750Y0138412D01*
X0042750Y0138110D02*
X0042750Y0145087D01*
X0043750Y0145087D01*
X0043750Y0146087D01*
X0047750Y0146087D01*
X0047750Y0148942D01*
X0047639Y0149641D01*
X0047420Y0150315D01*
X0047099Y0150946D01*
X0046682Y0151519D01*
X0046182Y0152020D01*
X0045609Y0152436D01*
X0044977Y0152758D01*
X0044304Y0152977D01*
X0043750Y0153064D01*
X0043750Y0146087D01*
X0042750Y0146087D01*
X0042750Y0145087D01*
X0038750Y0145087D01*
X0038750Y0142233D01*
X0038861Y0141534D01*
X0039080Y0140860D01*
X0039401Y0140229D01*
X0039818Y0139656D01*
X0040318Y0139155D01*
X0040891Y0138739D01*
X0041523Y0138417D01*
X0042196Y0138198D01*
X0042750Y0138110D01*
X0041539Y0138412D02*
X0035052Y0138412D01*
X0035355Y0139410D02*
X0040063Y0139410D01*
X0039310Y0140409D02*
X0035560Y0140409D01*
X0035690Y0141407D02*
X0038902Y0141407D01*
X0038750Y0142406D02*
X0023248Y0142406D01*
X0023248Y0143404D02*
X0022248Y0143404D01*
X0022248Y0144403D02*
X0023248Y0144403D01*
X0023248Y0145401D02*
X0022248Y0145401D01*
X0022248Y0146400D02*
X0023248Y0146400D01*
X0023248Y0147398D02*
X0022248Y0147398D01*
X0022248Y0148397D02*
X0023248Y0148397D01*
X0023248Y0149395D02*
X0022248Y0149395D01*
X0022248Y0150394D02*
X0023248Y0150394D01*
X0023248Y0151392D02*
X0022248Y0151392D01*
X0022248Y0152391D02*
X0023248Y0152391D01*
X0023248Y0153389D02*
X0022248Y0153389D01*
X0022248Y0154388D02*
X0023248Y0154388D01*
X0023248Y0155386D02*
X0022248Y0155386D01*
X0020220Y0155386D02*
X0009500Y0155386D01*
X0009500Y0154388D02*
X0017159Y0154388D01*
X0015444Y0153389D02*
X0009500Y0153389D01*
X0009500Y0152391D02*
X0014144Y0152391D01*
X0013121Y0151392D02*
X0009500Y0151392D01*
X0009500Y0150394D02*
X0012299Y0150394D01*
X0011630Y0149395D02*
X0009500Y0149395D01*
X0009500Y0148397D02*
X0011087Y0148397D01*
X0010650Y0147398D02*
X0009500Y0147398D01*
X0009500Y0146400D02*
X0010305Y0146400D01*
X0010044Y0145401D02*
X0009500Y0145401D01*
X0009500Y0144403D02*
X0009859Y0144403D01*
X0009761Y0143404D02*
X0009500Y0143404D01*
X0025276Y0155386D02*
X0072967Y0155386D01*
X0072967Y0154388D02*
X0028337Y0154388D01*
X0030052Y0153389D02*
X0072967Y0153389D01*
X0072967Y0152391D02*
X0066093Y0152391D01*
X0067092Y0151392D02*
X0072967Y0151392D01*
X0072967Y0150394D02*
X0067589Y0150394D01*
X0060407Y0152391D02*
X0056093Y0152391D01*
X0057092Y0151392D02*
X0059408Y0151392D01*
X0058911Y0150394D02*
X0057589Y0150394D01*
X0057950Y0149395D02*
X0058550Y0149395D01*
X0058550Y0148397D02*
X0057950Y0148397D01*
X0057950Y0147398D02*
X0058550Y0147398D01*
X0058550Y0146400D02*
X0057950Y0146400D01*
X0057950Y0145401D02*
X0058550Y0145401D01*
X0058550Y0144403D02*
X0057950Y0144403D01*
X0057950Y0143404D02*
X0058550Y0143404D01*
X0058550Y0142406D02*
X0057950Y0142406D01*
X0057848Y0141407D02*
X0058652Y0141407D01*
X0059065Y0140409D02*
X0057435Y0140409D01*
X0056720Y0139410D02*
X0059780Y0139410D01*
X0055125Y0136837D02*
X0053250Y0138712D01*
X0053250Y0145587D01*
X0048550Y0145401D02*
X0043750Y0145401D01*
X0043750Y0144403D02*
X0042750Y0144403D01*
X0042750Y0145401D02*
X0035452Y0145401D01*
X0035637Y0144403D02*
X0038750Y0144403D01*
X0038750Y0143404D02*
X0035735Y0143404D01*
X0035191Y0146400D02*
X0038750Y0146400D01*
X0038750Y0146087D02*
X0042750Y0146087D01*
X0042750Y0153064D01*
X0042196Y0152977D01*
X0041523Y0152758D01*
X0040891Y0152436D01*
X0040318Y0152020D01*
X0039818Y0151519D01*
X0039401Y0150946D01*
X0039080Y0150315D01*
X0038861Y0149641D01*
X0038750Y0148942D01*
X0038750Y0146087D01*
X0038750Y0147398D02*
X0034846Y0147398D01*
X0034409Y0148397D02*
X0038750Y0148397D01*
X0038822Y0149395D02*
X0033866Y0149395D01*
X0033198Y0150394D02*
X0039120Y0150394D01*
X0039726Y0151392D02*
X0032375Y0151392D01*
X0031352Y0152391D02*
X0040829Y0152391D01*
X0042750Y0152391D02*
X0043750Y0152391D01*
X0043750Y0151392D02*
X0042750Y0151392D01*
X0042750Y0150394D02*
X0043750Y0150394D01*
X0043750Y0149395D02*
X0042750Y0149395D01*
X0042750Y0148397D02*
X0043750Y0148397D01*
X0043750Y0147398D02*
X0042750Y0147398D01*
X0042750Y0146400D02*
X0043750Y0146400D01*
X0043750Y0143404D02*
X0042750Y0143404D01*
X0042750Y0142406D02*
X0043750Y0142406D01*
X0043750Y0141407D02*
X0042750Y0141407D01*
X0042750Y0140409D02*
X0043750Y0140409D01*
X0043750Y0139410D02*
X0042750Y0139410D01*
X0046437Y0139410D02*
X0049780Y0139410D01*
X0049065Y0140409D02*
X0047190Y0140409D01*
X0047598Y0141407D02*
X0048652Y0141407D01*
X0048550Y0142406D02*
X0047750Y0142406D01*
X0047750Y0143404D02*
X0048550Y0143404D01*
X0048550Y0144403D02*
X0047750Y0144403D01*
X0047750Y0146400D02*
X0048550Y0146400D01*
X0048550Y0147398D02*
X0047750Y0147398D01*
X0047750Y0148397D02*
X0048550Y0148397D01*
X0048550Y0149395D02*
X0047678Y0149395D01*
X0047380Y0150394D02*
X0048911Y0150394D01*
X0049408Y0151392D02*
X0046774Y0151392D01*
X0045671Y0152391D02*
X0050407Y0152391D01*
X0055125Y0136837D02*
X0067625Y0136837D01*
X0069500Y0138712D01*
X0069500Y0140587D01*
X0069455Y0133419D02*
X0031917Y0133419D01*
X0030794Y0132421D02*
X0067395Y0132421D01*
X0066397Y0131422D02*
X0029349Y0131422D01*
X0039543Y0120439D02*
X0059082Y0120439D01*
X0059120Y0114447D02*
X0054036Y0114447D01*
X0059000Y0111452D02*
X0060000Y0111452D01*
X0060000Y0110453D02*
X0059000Y0110453D01*
X0059000Y0109455D02*
X0060000Y0109455D01*
X0060000Y0108456D02*
X0059000Y0108456D01*
X0059000Y0106849D02*
X0060000Y0106849D01*
X0060000Y0102700D01*
X0065012Y0102700D01*
X0065047Y0102709D01*
X0065047Y0101571D01*
X0065149Y0101190D01*
X0065158Y0101175D01*
X0053975Y0101175D01*
X0053975Y0102703D01*
X0053988Y0102700D01*
X0059000Y0102700D01*
X0059000Y0106849D01*
X0059000Y0106459D02*
X0060000Y0106459D01*
X0060000Y0105461D02*
X0059000Y0105461D01*
X0059000Y0104462D02*
X0060000Y0104462D01*
X0060000Y0103464D02*
X0059000Y0103464D01*
X0053975Y0102465D02*
X0065047Y0102465D01*
X0065075Y0101467D02*
X0053975Y0101467D01*
X0065525Y0091482D02*
X0086033Y0091482D01*
X0087032Y0092480D02*
X0066515Y0092480D01*
X0080085Y0093479D02*
X0087300Y0093479D01*
X0089500Y0091837D02*
X0084500Y0086837D01*
X0082903Y0080080D02*
X0086271Y0080080D01*
X0089175Y0077176D01*
X0089215Y0077137D01*
X0086875Y0077137D01*
X0086875Y0073578D01*
X0085875Y0073578D01*
X0085875Y0077137D01*
X0083225Y0077137D01*
X0082903Y0077050D01*
X0082903Y0078851D01*
X0082820Y0078934D01*
X0082903Y0079017D01*
X0082903Y0080080D01*
X0082903Y0079500D02*
X0086852Y0079500D01*
X0087850Y0078501D02*
X0082903Y0078501D01*
X0082903Y0077503D02*
X0088849Y0077503D01*
X0089175Y0077176D02*
X0089175Y0077176D01*
X0086875Y0076504D02*
X0085875Y0076504D01*
X0085875Y0075506D02*
X0086875Y0075506D01*
X0086875Y0074507D02*
X0085875Y0074507D01*
X0086375Y0073078D02*
X0082192Y0068894D01*
X0078250Y0068894D01*
X0078250Y0068087D01*
X0071375Y0061212D01*
X0071375Y0058712D01*
X0072000Y0058087D01*
X0072625Y0058087D02*
X0072625Y0053712D01*
X0078250Y0048087D01*
X0078250Y0046030D01*
X0079067Y0046030D01*
X0085750Y0039347D01*
X0086250Y0038847D02*
X0086250Y0035288D01*
X0088900Y0035288D01*
X0089282Y0035390D01*
X0089624Y0035588D01*
X0089800Y0035764D01*
X0089800Y0030874D01*
X0089214Y0030287D01*
X0082903Y0030287D01*
X0082903Y0035288D01*
X0085250Y0035288D01*
X0085250Y0038847D01*
X0086250Y0038847D01*
X0086250Y0038561D02*
X0085250Y0038561D01*
X0085250Y0037562D02*
X0086250Y0037562D01*
X0086250Y0036564D02*
X0085250Y0036564D01*
X0085250Y0035565D02*
X0086250Y0035565D01*
X0082903Y0034567D02*
X0089800Y0034567D01*
X0089800Y0035565D02*
X0089584Y0035565D01*
X0089800Y0033568D02*
X0082903Y0033568D01*
X0082903Y0032570D02*
X0089800Y0032570D01*
X0089800Y0031571D02*
X0082903Y0031571D01*
X0082903Y0030573D02*
X0089499Y0030573D01*
X0090125Y0028087D02*
X0051375Y0028087D01*
X0049500Y0029962D01*
X0049500Y0041837D01*
X0051650Y0043987D01*
X0051871Y0041097D02*
X0052847Y0041097D01*
X0053089Y0041338D01*
X0053089Y0040462D01*
X0057238Y0040462D01*
X0057238Y0039462D01*
X0058238Y0039462D01*
X0058238Y0034919D01*
X0061085Y0034919D01*
X0061467Y0035021D01*
X0061809Y0035219D01*
X0062088Y0035498D01*
X0062286Y0035840D01*
X0062388Y0036222D01*
X0062388Y0039462D01*
X0058238Y0039462D01*
X0058238Y0040462D01*
X0062388Y0040462D01*
X0062388Y0043703D01*
X0062286Y0044085D01*
X0062088Y0044427D01*
X0061809Y0044706D01*
X0061467Y0044903D01*
X0061085Y0045006D01*
X0060921Y0045006D01*
X0061550Y0045635D01*
X0062974Y0047059D01*
X0063046Y0046987D01*
X0065654Y0046987D01*
X0065854Y0047187D01*
X0065950Y0047187D01*
X0065950Y0045206D01*
X0064908Y0045206D01*
X0063912Y0044210D01*
X0063912Y0035715D01*
X0064908Y0034719D01*
X0065788Y0034719D01*
X0065788Y0034309D01*
X0067596Y0032500D01*
X0068851Y0032500D01*
X0070907Y0030444D01*
X0073597Y0030444D01*
X0073597Y0030287D01*
X0052286Y0030287D01*
X0051700Y0030874D01*
X0051700Y0040926D01*
X0051871Y0041097D01*
X0051700Y0040558D02*
X0053089Y0040558D01*
X0053089Y0039462D02*
X0053089Y0036222D01*
X0053191Y0035840D01*
X0053388Y0035498D01*
X0053668Y0035219D01*
X0054010Y0035021D01*
X0054391Y0034919D01*
X0057238Y0034919D01*
X0057238Y0039462D01*
X0053089Y0039462D01*
X0053089Y0038561D02*
X0051700Y0038561D01*
X0051700Y0039559D02*
X0057238Y0039559D01*
X0057238Y0038561D02*
X0058238Y0038561D01*
X0058238Y0039559D02*
X0063912Y0039559D01*
X0063912Y0038561D02*
X0062388Y0038561D01*
X0062388Y0037562D02*
X0063912Y0037562D01*
X0063912Y0036564D02*
X0062388Y0036564D01*
X0062127Y0035565D02*
X0064062Y0035565D01*
X0065788Y0034567D02*
X0051700Y0034567D01*
X0051700Y0035565D02*
X0053350Y0035565D01*
X0053089Y0036564D02*
X0051700Y0036564D01*
X0051700Y0037562D02*
X0053089Y0037562D01*
X0057238Y0037562D02*
X0058238Y0037562D01*
X0058238Y0036564D02*
X0057238Y0036564D01*
X0057238Y0035565D02*
X0058238Y0035565D01*
X0062388Y0040558D02*
X0063912Y0040558D01*
X0063912Y0041556D02*
X0062388Y0041556D01*
X0062388Y0042555D02*
X0063912Y0042555D01*
X0063912Y0043553D02*
X0062388Y0043553D01*
X0061963Y0044552D02*
X0064254Y0044552D01*
X0065950Y0045550D02*
X0061465Y0045550D01*
X0062464Y0046549D02*
X0065950Y0046549D01*
X0066250Y0048587D02*
X0066250Y0050287D01*
X0067750Y0053587D02*
X0067750Y0057587D01*
X0068750Y0057587D01*
X0068750Y0053587D01*
X0067750Y0053587D01*
X0067750Y0054537D02*
X0068750Y0054537D01*
X0068750Y0055535D02*
X0067750Y0055535D01*
X0067750Y0056534D02*
X0068750Y0056534D01*
X0068750Y0057532D02*
X0067750Y0057532D01*
X0067750Y0057587D02*
X0063750Y0057587D01*
X0063750Y0058587D01*
X0067750Y0058587D01*
X0067750Y0057587D01*
X0067750Y0058531D02*
X0063750Y0058531D01*
X0060450Y0058087D02*
X0060450Y0060087D01*
X0057000Y0060087D01*
X0054846Y0060087D01*
X0054721Y0059962D01*
X0057700Y0063487D02*
X0044700Y0063487D01*
X0045052Y0063523D02*
X0034127Y0063523D01*
X0034063Y0063587D02*
X0045116Y0063587D01*
X0044360Y0062832D01*
X0044360Y0062112D01*
X0034916Y0062112D01*
X0034916Y0062735D01*
X0034063Y0063587D01*
X0033325Y0064137D02*
X0034625Y0062837D01*
X0034916Y0062525D02*
X0044360Y0062525D01*
X0047950Y0059912D02*
X0048000Y0059962D01*
X0048029Y0059962D01*
X0051904Y0056087D01*
X0060450Y0056087D01*
X0067750Y0058587D02*
X0067750Y0062587D01*
X0068750Y0062587D01*
X0068750Y0058587D01*
X0072946Y0058587D01*
X0072950Y0058583D01*
X0072950Y0058087D01*
X0072950Y0057592D01*
X0072946Y0057587D01*
X0068750Y0057587D01*
X0068750Y0058587D01*
X0067750Y0058587D01*
X0067750Y0059529D02*
X0068750Y0059529D01*
X0068750Y0058531D02*
X0072950Y0058531D01*
X0072950Y0058087D02*
X0073446Y0058087D01*
X0072950Y0058087D01*
X0073446Y0058087D02*
X0073446Y0058087D01*
X0073446Y0058087D01*
X0076050Y0056087D02*
X0082125Y0056087D01*
X0083600Y0054612D01*
X0080275Y0054187D02*
X0085750Y0048712D01*
X0085750Y0046828D01*
X0081097Y0046530D02*
X0078750Y0046530D01*
X0078750Y0045530D01*
X0081097Y0045530D01*
X0081097Y0046530D01*
X0081097Y0045550D02*
X0078750Y0045550D01*
X0078750Y0046530D02*
X0077750Y0046530D01*
X0077750Y0050089D01*
X0076075Y0050089D01*
X0076075Y0050249D01*
X0074786Y0051537D01*
X0074450Y0051874D01*
X0074450Y0051887D01*
X0078354Y0051887D01*
X0078454Y0051987D01*
X0079364Y0051987D01*
X0081179Y0050172D01*
X0081097Y0050091D01*
X0081097Y0050089D01*
X0078750Y0050089D01*
X0078750Y0046530D01*
X0078750Y0046549D02*
X0077750Y0046549D01*
X0077750Y0047547D02*
X0078750Y0047547D01*
X0078750Y0048546D02*
X0077750Y0048546D01*
X0077750Y0049544D02*
X0078750Y0049544D01*
X0079810Y0051541D02*
X0074782Y0051541D01*
X0075781Y0050543D02*
X0080808Y0050543D01*
X0080275Y0054187D02*
X0076050Y0054187D01*
X0072925Y0050287D02*
X0073875Y0049337D01*
X0073875Y0043087D01*
X0077625Y0039337D01*
X0078250Y0039337D01*
X0078250Y0032644D02*
X0071818Y0032644D01*
X0068875Y0035587D01*
X0068762Y0035701D01*
X0068762Y0039962D01*
X0066528Y0033568D02*
X0051700Y0033568D01*
X0051700Y0032570D02*
X0067527Y0032570D01*
X0069780Y0031571D02*
X0051700Y0031571D01*
X0052001Y0030573D02*
X0070779Y0030573D01*
X0090125Y0028087D02*
X0092000Y0029962D01*
X0092000Y0074962D01*
X0091975Y0074987D01*
X0094200Y0073125D02*
X0094866Y0073790D01*
X0094866Y0074611D01*
X0096050Y0073426D01*
X0097339Y0072137D01*
X0103212Y0072137D01*
X0101609Y0070535D01*
X0101609Y0068140D01*
X0102797Y0066953D01*
X0102231Y0066953D01*
X0101235Y0065957D01*
X0101235Y0060218D01*
X0102231Y0059222D01*
X0102704Y0059222D01*
X0102704Y0058006D01*
X0102034Y0058006D01*
X0101816Y0057787D01*
X0099999Y0057787D01*
X0099999Y0059244D01*
X0099003Y0060240D01*
X0094200Y0060240D01*
X0094200Y0073125D01*
X0094584Y0073509D02*
X0095968Y0073509D01*
X0094969Y0074507D02*
X0094866Y0074507D01*
X0094200Y0072510D02*
X0096966Y0072510D01*
X0097025Y0072262D02*
X0132125Y0072262D01*
X0132965Y0071511D02*
X0123289Y0071511D01*
X0124287Y0070513D02*
X0133963Y0070513D01*
X0134962Y0069514D02*
X0129986Y0069514D01*
X0130841Y0068516D02*
X0135960Y0068516D01*
X0136959Y0067517D02*
X0130841Y0067517D01*
X0130841Y0066519D02*
X0137957Y0066519D01*
X0138956Y0065520D02*
X0130096Y0065520D01*
X0128121Y0064522D02*
X0139954Y0064522D01*
X0140953Y0063523D02*
X0127122Y0063523D01*
X0126124Y0062525D02*
X0141951Y0062525D01*
X0142950Y0061526D02*
X0125125Y0061526D01*
X0123575Y0063087D02*
X0111596Y0063087D01*
X0115265Y0060528D02*
X0150472Y0060528D01*
X0151470Y0059529D02*
X0114576Y0059529D01*
X0113959Y0057806D02*
X0112081Y0057806D01*
X0112081Y0054822D01*
X0115262Y0054822D01*
X0115262Y0056503D01*
X0115160Y0056885D01*
X0114962Y0057227D01*
X0114683Y0057506D01*
X0114341Y0057704D01*
X0113959Y0057806D01*
X0114638Y0057532D02*
X0201350Y0057532D01*
X0201350Y0056534D02*
X0115254Y0056534D01*
X0115262Y0055535D02*
X0201350Y0055535D01*
X0201350Y0054537D02*
X0112081Y0054537D01*
X0112081Y0053853D02*
X0115262Y0053853D01*
X0115262Y0052171D01*
X0115160Y0051790D01*
X0114962Y0051448D01*
X0114683Y0051169D01*
X0114341Y0050971D01*
X0113959Y0050869D01*
X0112081Y0050869D01*
X0112081Y0053853D01*
X0112081Y0053538D02*
X0111112Y0053538D01*
X0111112Y0052540D02*
X0112081Y0052540D01*
X0112081Y0051541D02*
X0111112Y0051541D01*
X0115016Y0051541D02*
X0201350Y0051541D01*
X0201350Y0050543D02*
X0107104Y0050543D01*
X0107104Y0049544D02*
X0201350Y0049544D01*
X0201350Y0048546D02*
X0192595Y0048546D01*
X0192487Y0048590D02*
X0191265Y0048961D01*
X0190012Y0049210D01*
X0188741Y0049335D01*
X0188602Y0049335D01*
X0188602Y0036835D01*
X0201102Y0036835D01*
X0201102Y0036974D01*
X0200977Y0038245D01*
X0200728Y0039498D01*
X0200357Y0040720D01*
X0199868Y0041900D01*
X0199266Y0043027D01*
X0198557Y0044089D01*
X0197746Y0045076D01*
X0196843Y0045979D01*
X0195856Y0046790D01*
X0194794Y0047499D01*
X0193667Y0048101D01*
X0192487Y0048590D01*
X0194704Y0047547D02*
X0201350Y0047547D01*
X0201350Y0046549D02*
X0196149Y0046549D01*
X0197272Y0045550D02*
X0201350Y0045550D01*
X0201350Y0044552D02*
X0198177Y0044552D01*
X0198915Y0043553D02*
X0201350Y0043553D01*
X0201350Y0042555D02*
X0199519Y0042555D01*
X0200011Y0041556D02*
X0201350Y0041556D01*
X0201350Y0040558D02*
X0200407Y0040558D01*
X0200709Y0039559D02*
X0201350Y0039559D01*
X0201350Y0038561D02*
X0200914Y0038561D01*
X0201044Y0037562D02*
X0201350Y0037562D01*
X0201350Y0036564D02*
X0188602Y0036564D01*
X0188602Y0036835D02*
X0188602Y0035835D01*
X0188602Y0023335D01*
X0188741Y0023335D01*
X0190012Y0023461D01*
X0191265Y0023710D01*
X0192487Y0024081D01*
X0193667Y0024569D01*
X0194794Y0025172D01*
X0195856Y0025881D01*
X0196843Y0026691D01*
X0197746Y0027595D01*
X0198557Y0028582D01*
X0199266Y0029644D01*
X0199868Y0030771D01*
X0200357Y0031951D01*
X0200728Y0033173D01*
X0200977Y0034426D01*
X0201102Y0035697D01*
X0201102Y0035835D01*
X0188602Y0035835D01*
X0187602Y0035835D01*
X0187602Y0023335D01*
X0187464Y0023335D01*
X0186193Y0023461D01*
X0184940Y0023710D01*
X0183718Y0024081D01*
X0182537Y0024569D01*
X0181411Y0025172D01*
X0180349Y0025881D01*
X0179362Y0026691D01*
X0178458Y0027595D01*
X0177648Y0028582D01*
X0176938Y0029644D01*
X0176336Y0030771D01*
X0175848Y0031951D01*
X0175477Y0033173D01*
X0175228Y0034426D01*
X0175102Y0035697D01*
X0175102Y0035835D01*
X0187602Y0035835D01*
X0187602Y0036835D01*
X0175102Y0036835D01*
X0175102Y0036974D01*
X0175228Y0038245D01*
X0175477Y0039498D01*
X0175848Y0040720D01*
X0176336Y0041900D01*
X0176938Y0043027D01*
X0177648Y0044089D01*
X0178458Y0045076D01*
X0179362Y0045979D01*
X0180349Y0046790D01*
X0181411Y0047499D01*
X0182537Y0048101D01*
X0183718Y0048590D01*
X0184940Y0048961D01*
X0186193Y0049210D01*
X0187464Y0049335D01*
X0187602Y0049335D01*
X0187602Y0036835D01*
X0188602Y0036835D01*
X0188602Y0037562D02*
X0187602Y0037562D01*
X0187602Y0036564D02*
X0119079Y0036564D01*
X0120419Y0035565D02*
X0175115Y0035565D01*
X0175214Y0034567D02*
X0121164Y0034567D01*
X0121577Y0033568D02*
X0175398Y0033568D01*
X0175660Y0032570D02*
X0121700Y0032570D01*
X0121700Y0031571D02*
X0176005Y0031571D01*
X0176442Y0030573D02*
X0121700Y0030573D01*
X0121700Y0029574D02*
X0176985Y0029574D01*
X0177653Y0028575D02*
X0121700Y0028575D01*
X0121700Y0027577D02*
X0178476Y0027577D01*
X0179499Y0026578D02*
X0121700Y0026578D01*
X0121700Y0025580D02*
X0180800Y0025580D01*
X0182515Y0024581D02*
X0121360Y0024581D01*
X0120892Y0023583D02*
X0185578Y0023583D01*
X0187602Y0023583D02*
X0188602Y0023583D01*
X0188602Y0024581D02*
X0187602Y0024581D01*
X0187602Y0025580D02*
X0188602Y0025580D01*
X0188602Y0026578D02*
X0187602Y0026578D01*
X0187602Y0027577D02*
X0188602Y0027577D01*
X0188602Y0028575D02*
X0187602Y0028575D01*
X0187602Y0029574D02*
X0188602Y0029574D01*
X0188602Y0030573D02*
X0187602Y0030573D01*
X0187602Y0031571D02*
X0188602Y0031571D01*
X0188602Y0032570D02*
X0187602Y0032570D01*
X0187602Y0033568D02*
X0188602Y0033568D01*
X0188602Y0034567D02*
X0187602Y0034567D01*
X0187602Y0035565D02*
X0188602Y0035565D01*
X0188602Y0038561D02*
X0187602Y0038561D01*
X0187602Y0039559D02*
X0188602Y0039559D01*
X0188602Y0040558D02*
X0187602Y0040558D01*
X0187602Y0041556D02*
X0188602Y0041556D01*
X0188602Y0042555D02*
X0187602Y0042555D01*
X0187602Y0043553D02*
X0188602Y0043553D01*
X0188602Y0044552D02*
X0187602Y0044552D01*
X0187602Y0045550D02*
X0188602Y0045550D01*
X0188602Y0046549D02*
X0187602Y0046549D01*
X0187602Y0047547D02*
X0188602Y0047547D01*
X0188602Y0048546D02*
X0187602Y0048546D01*
X0183610Y0048546D02*
X0107104Y0048546D01*
X0107104Y0047547D02*
X0181501Y0047547D01*
X0180055Y0046549D02*
X0107104Y0046549D01*
X0107104Y0045550D02*
X0178932Y0045550D01*
X0178028Y0044552D02*
X0107397Y0044552D01*
X0108395Y0043553D02*
X0177290Y0043553D01*
X0176686Y0042555D02*
X0109394Y0042555D01*
X0110393Y0041556D02*
X0176194Y0041556D01*
X0175798Y0040558D02*
X0111391Y0040558D01*
X0112390Y0039559D02*
X0175495Y0039559D01*
X0175290Y0038561D02*
X0113388Y0038561D01*
X0114387Y0037562D02*
X0175160Y0037562D01*
X0190627Y0023583D02*
X0201350Y0023583D01*
X0201350Y0024581D02*
X0193690Y0024581D01*
X0195405Y0025580D02*
X0201350Y0025580D01*
X0201350Y0026578D02*
X0196705Y0026578D01*
X0197729Y0027577D02*
X0201350Y0027577D01*
X0201350Y0028575D02*
X0198551Y0028575D01*
X0199219Y0029574D02*
X0201350Y0029574D01*
X0201350Y0030573D02*
X0199763Y0030573D01*
X0200200Y0031571D02*
X0201350Y0031571D01*
X0201350Y0032570D02*
X0200545Y0032570D01*
X0200807Y0033568D02*
X0201350Y0033568D01*
X0201350Y0034567D02*
X0200991Y0034567D01*
X0201089Y0035565D02*
X0201350Y0035565D01*
X0201350Y0052540D02*
X0115262Y0052540D01*
X0115262Y0053538D02*
X0201350Y0053538D01*
X0201350Y0058531D02*
X0107104Y0058531D01*
X0107884Y0059529D02*
X0108616Y0059529D01*
X0108555Y0057532D02*
X0108247Y0057532D01*
X0111112Y0057532D02*
X0112081Y0057532D01*
X0112081Y0056534D02*
X0111112Y0056534D01*
X0111112Y0055535D02*
X0112081Y0055535D01*
X0104904Y0054337D02*
X0104904Y0043934D01*
X0117000Y0031837D01*
X0117000Y0029337D01*
X0112300Y0029574D02*
X0107500Y0029574D01*
X0107500Y0029837D02*
X0107500Y0028837D01*
X0111500Y0028837D01*
X0111500Y0025983D01*
X0111389Y0025284D01*
X0111170Y0024610D01*
X0110849Y0023979D01*
X0110432Y0023406D01*
X0110114Y0023087D01*
X0113603Y0023087D01*
X0113016Y0023675D01*
X0112300Y0025402D01*
X0112300Y0033272D01*
X0112345Y0033381D01*
X0102704Y0043023D01*
X0102704Y0050669D01*
X0102034Y0050669D01*
X0101038Y0051665D01*
X0101038Y0053387D01*
X0099999Y0053387D01*
X0099999Y0051930D01*
X0099003Y0050935D01*
X0094200Y0050935D01*
X0094200Y0036184D01*
X0094338Y0036322D01*
X0096065Y0037037D01*
X0097935Y0037037D01*
X0099662Y0036322D01*
X0100984Y0035000D01*
X0101700Y0033272D01*
X0101700Y0025402D01*
X0100984Y0023675D01*
X0100397Y0023087D01*
X0103886Y0023087D01*
X0103568Y0023406D01*
X0103151Y0023979D01*
X0102830Y0024610D01*
X0102611Y0025284D01*
X0102500Y0025983D01*
X0102500Y0028837D01*
X0106500Y0028837D01*
X0106500Y0029837D01*
X0102500Y0029837D01*
X0102500Y0032692D01*
X0102611Y0033391D01*
X0102830Y0034065D01*
X0103151Y0034696D01*
X0103568Y0035269D01*
X0104068Y0035770D01*
X0104641Y0036186D01*
X0105273Y0036508D01*
X0105946Y0036727D01*
X0106500Y0036814D01*
X0106500Y0029837D01*
X0107500Y0029837D01*
X0111500Y0029837D01*
X0111500Y0032692D01*
X0111389Y0033391D01*
X0111170Y0034065D01*
X0110849Y0034696D01*
X0110432Y0035269D01*
X0109932Y0035770D01*
X0109359Y0036186D01*
X0108727Y0036508D01*
X0108054Y0036727D01*
X0107500Y0036814D01*
X0107500Y0029837D01*
X0107500Y0030573D02*
X0106500Y0030573D01*
X0106500Y0031571D02*
X0107500Y0031571D01*
X0107500Y0032570D02*
X0106500Y0032570D01*
X0106500Y0033568D02*
X0107500Y0033568D01*
X0107500Y0034567D02*
X0106500Y0034567D01*
X0106500Y0035565D02*
X0107500Y0035565D01*
X0107500Y0036564D02*
X0106500Y0036564D01*
X0105445Y0036564D02*
X0099079Y0036564D01*
X0100419Y0035565D02*
X0103864Y0035565D01*
X0103085Y0034567D02*
X0101164Y0034567D01*
X0101577Y0033568D02*
X0102668Y0033568D01*
X0102500Y0032570D02*
X0101700Y0032570D01*
X0101700Y0031571D02*
X0102500Y0031571D01*
X0102500Y0030573D02*
X0101700Y0030573D01*
X0101700Y0029574D02*
X0106500Y0029574D01*
X0102500Y0028575D02*
X0101700Y0028575D01*
X0101700Y0027577D02*
X0102500Y0027577D01*
X0102500Y0026578D02*
X0101700Y0026578D01*
X0101700Y0025580D02*
X0102564Y0025580D01*
X0102844Y0024581D02*
X0101360Y0024581D01*
X0100892Y0023583D02*
X0103439Y0023583D01*
X0110561Y0023583D02*
X0113108Y0023583D01*
X0112640Y0024581D02*
X0111156Y0024581D01*
X0111436Y0025580D02*
X0112300Y0025580D01*
X0112300Y0026578D02*
X0111500Y0026578D01*
X0111500Y0027577D02*
X0112300Y0027577D01*
X0112300Y0028575D02*
X0111500Y0028575D01*
X0111500Y0030573D02*
X0112300Y0030573D01*
X0112300Y0031571D02*
X0111500Y0031571D01*
X0111500Y0032570D02*
X0112300Y0032570D01*
X0112158Y0033568D02*
X0111332Y0033568D01*
X0111160Y0034567D02*
X0110915Y0034567D01*
X0110161Y0035565D02*
X0110136Y0035565D01*
X0109163Y0036564D02*
X0108555Y0036564D01*
X0108164Y0037562D02*
X0094200Y0037562D01*
X0094200Y0036564D02*
X0094921Y0036564D01*
X0094200Y0038561D02*
X0107166Y0038561D01*
X0106167Y0039559D02*
X0094200Y0039559D01*
X0094200Y0040558D02*
X0105168Y0040558D01*
X0104170Y0041556D02*
X0094200Y0041556D01*
X0094200Y0042555D02*
X0103171Y0042555D01*
X0102704Y0043553D02*
X0094200Y0043553D01*
X0094200Y0044552D02*
X0102704Y0044552D01*
X0102704Y0045550D02*
X0094200Y0045550D01*
X0094200Y0046549D02*
X0102704Y0046549D01*
X0102704Y0047547D02*
X0094200Y0047547D01*
X0094200Y0048546D02*
X0102704Y0048546D01*
X0102704Y0049544D02*
X0094200Y0049544D01*
X0094200Y0050543D02*
X0102704Y0050543D01*
X0101162Y0051541D02*
X0099610Y0051541D01*
X0099999Y0052540D02*
X0101038Y0052540D01*
X0103654Y0055587D02*
X0104904Y0054337D01*
X0104904Y0063087D01*
X0101235Y0063523D02*
X0094200Y0063523D01*
X0094200Y0062525D02*
X0101235Y0062525D01*
X0101235Y0061526D02*
X0094200Y0061526D01*
X0094200Y0060528D02*
X0101235Y0060528D01*
X0101924Y0059529D02*
X0099714Y0059529D01*
X0099999Y0058531D02*
X0102704Y0058531D01*
X0103654Y0055587D02*
X0095740Y0055587D01*
X0088260Y0055587D02*
X0088250Y0055597D01*
X0088250Y0059337D01*
X0087500Y0060087D01*
X0076050Y0060087D01*
X0076050Y0061987D02*
X0085275Y0061987D01*
X0086375Y0063087D01*
X0086375Y0065597D01*
X0081722Y0064922D02*
X0081722Y0064187D01*
X0078454Y0064187D01*
X0078354Y0064287D01*
X0074450Y0064287D01*
X0074450Y0065093D01*
X0074718Y0064938D01*
X0075100Y0064835D01*
X0077750Y0064835D01*
X0077750Y0068394D01*
X0078750Y0068394D01*
X0078750Y0064835D01*
X0081400Y0064835D01*
X0081722Y0064922D01*
X0081722Y0064522D02*
X0074450Y0064522D01*
X0072150Y0065887D02*
X0072150Y0066987D01*
X0073875Y0068712D01*
X0073875Y0073712D01*
X0075750Y0075587D01*
X0078250Y0075587D01*
X0077750Y0067517D02*
X0078750Y0067517D01*
X0078750Y0066519D02*
X0077750Y0066519D01*
X0077750Y0065520D02*
X0078750Y0065520D01*
X0068750Y0062525D02*
X0067750Y0062525D01*
X0067750Y0061526D02*
X0068750Y0061526D01*
X0068750Y0060528D02*
X0067750Y0060528D01*
X0068250Y0065887D02*
X0068250Y0070287D01*
X0067000Y0071537D01*
X0054944Y0068516D02*
X0031699Y0068516D01*
X0030701Y0069514D02*
X0053945Y0069514D01*
X0047950Y0059912D02*
X0033650Y0059912D01*
X0032025Y0061537D01*
X0029923Y0063523D02*
X0029192Y0063523D01*
X0029750Y0063487D02*
X0030400Y0064137D01*
X0033325Y0064137D01*
X0029188Y0064522D02*
X0028193Y0064522D01*
X0028189Y0065520D02*
X0027195Y0065520D01*
X0027191Y0066519D02*
X0026196Y0066519D01*
X0026192Y0067517D02*
X0025198Y0067517D01*
X0025194Y0068516D02*
X0024199Y0068516D01*
X0024195Y0069514D02*
X0023246Y0069514D01*
X0023197Y0070513D02*
X0022833Y0070513D01*
X0022198Y0071511D02*
X0021973Y0071511D01*
X0021200Y0072510D02*
X0020355Y0072510D01*
X0020201Y0073509D02*
X0019977Y0073509D01*
X0028704Y0071511D02*
X0033448Y0071511D01*
X0034422Y0070513D02*
X0029702Y0070513D01*
X0022686Y0063523D02*
X0020013Y0063523D01*
X0020319Y0062525D02*
X0023685Y0062525D01*
X0024683Y0061526D02*
X0021958Y0061526D01*
X0022826Y0060528D02*
X0025682Y0060528D01*
X0025586Y0059529D02*
X0026680Y0059529D01*
X0026584Y0058531D02*
X0027679Y0058531D01*
X0027583Y0057532D02*
X0028677Y0057532D01*
X0028581Y0056534D02*
X0029676Y0056534D01*
X0029580Y0055535D02*
X0030674Y0055535D01*
X0030578Y0054537D02*
X0031673Y0054537D01*
X0031577Y0053538D02*
X0032671Y0053538D01*
X0032575Y0052540D02*
X0033670Y0052540D01*
X0033574Y0051541D02*
X0034668Y0051541D01*
X0034572Y0050543D02*
X0035667Y0050543D01*
X0035571Y0049544D02*
X0036665Y0049544D01*
X0038578Y0054137D02*
X0035003Y0057712D01*
X0044360Y0057712D01*
X0044360Y0057093D01*
X0045356Y0056097D01*
X0048783Y0056097D01*
X0050742Y0054137D01*
X0038578Y0054137D01*
X0038178Y0054537D02*
X0050343Y0054537D01*
X0049344Y0055535D02*
X0037180Y0055535D01*
X0036181Y0056534D02*
X0044919Y0056534D01*
X0044360Y0057532D02*
X0035183Y0057532D01*
X0025071Y0053538D02*
X0020049Y0053538D01*
X0021846Y0054537D02*
X0024073Y0054537D01*
X0023074Y0055535D02*
X0022780Y0055535D01*
X0023248Y0035565D02*
X0022248Y0035565D01*
X0022248Y0034567D02*
X0023248Y0034567D01*
X0023248Y0033568D02*
X0022248Y0033568D01*
X0022248Y0032570D02*
X0023248Y0032570D01*
X0023248Y0031571D02*
X0022248Y0031571D01*
X0022248Y0030573D02*
X0023248Y0030573D01*
X0023248Y0029574D02*
X0022248Y0029574D01*
X0022248Y0028575D02*
X0023248Y0028575D01*
X0023248Y0027577D02*
X0022248Y0027577D01*
X0022248Y0026578D02*
X0023248Y0026578D01*
X0023248Y0025580D02*
X0022248Y0025580D01*
X0022248Y0024581D02*
X0023248Y0024581D01*
X0023248Y0023583D02*
X0022248Y0023583D01*
X0020223Y0023583D02*
X0009500Y0023583D01*
X0009500Y0024581D02*
X0017161Y0024581D01*
X0025273Y0023583D02*
X0093108Y0023583D01*
X0092640Y0024581D02*
X0028335Y0024581D01*
X0030051Y0025580D02*
X0092300Y0025580D01*
X0092300Y0026578D02*
X0091727Y0026578D01*
X0072925Y0050287D02*
X0072150Y0050287D01*
X0094200Y0064522D02*
X0101235Y0064522D01*
X0101235Y0065520D02*
X0094200Y0065520D01*
X0094200Y0066519D02*
X0101797Y0066519D01*
X0101575Y0066737D02*
X0120100Y0066737D01*
X0122000Y0068712D02*
X0105125Y0068712D01*
X0104500Y0069337D01*
X0101609Y0069514D02*
X0094200Y0069514D01*
X0094200Y0068516D02*
X0101609Y0068516D01*
X0102232Y0067517D02*
X0094200Y0067517D01*
X0094200Y0070513D02*
X0101609Y0070513D01*
X0102586Y0071511D02*
X0094200Y0071511D01*
X0099950Y0071937D02*
X0113275Y0071937D01*
X0115265Y0065520D02*
X0122897Y0065520D01*
X0123894Y0066519D02*
X0123895Y0066519D01*
X0124891Y0067517D02*
X0124894Y0067517D01*
X0124891Y0068516D02*
X0125059Y0068516D01*
X0124891Y0069514D02*
X0125914Y0069514D01*
X0127950Y0067462D02*
X0123575Y0063087D01*
X0120711Y0071511D02*
X0106414Y0071511D01*
X0106345Y0082495D02*
X0105982Y0082495D01*
X0113856Y0082495D02*
X0114219Y0082495D01*
X0121730Y0082495D02*
X0122093Y0082495D01*
X0129604Y0082495D02*
X0129967Y0082495D01*
X0137478Y0082495D02*
X0139914Y0082495D01*
X0140593Y0083494D02*
X0137785Y0083494D01*
X0137785Y0084492D02*
X0141050Y0084492D01*
X0138009Y0085491D02*
X0137785Y0085491D01*
X0142464Y0089485D02*
X0146809Y0089485D01*
X0145984Y0088486D02*
X0143462Y0088486D01*
X0144461Y0087488D02*
X0145984Y0087488D01*
X0145984Y0086489D02*
X0145450Y0086489D01*
X0145450Y0085491D02*
X0146759Y0085491D01*
X0147300Y0084492D02*
X0145450Y0084492D01*
X0145907Y0083494D02*
X0147300Y0083494D01*
X0147300Y0082495D02*
X0146586Y0082495D01*
X0146918Y0081497D02*
X0147071Y0081497D01*
X0149500Y0079837D02*
X0149500Y0086837D01*
X0148875Y0087462D01*
X0150941Y0089485D02*
X0151050Y0089485D01*
X0155450Y0089485D02*
X0157350Y0089485D01*
X0157350Y0088486D02*
X0155450Y0088486D01*
X0155450Y0087488D02*
X0157350Y0087488D01*
X0157350Y0086489D02*
X0155450Y0086489D01*
X0155450Y0085491D02*
X0157350Y0085491D01*
X0157350Y0084492D02*
X0155450Y0084492D01*
X0155450Y0083494D02*
X0157350Y0083494D01*
X0157350Y0082495D02*
X0155450Y0082495D01*
X0155450Y0081497D02*
X0157350Y0081497D01*
X0157350Y0080498D02*
X0155450Y0080498D01*
X0155450Y0079500D02*
X0157350Y0079500D01*
X0157350Y0078501D02*
X0155450Y0078501D01*
X0155450Y0077503D02*
X0157574Y0077503D01*
X0158572Y0076504D02*
X0155450Y0076504D01*
X0155545Y0075506D02*
X0159571Y0075506D01*
X0160569Y0074507D02*
X0156141Y0074507D01*
X0156141Y0073509D02*
X0161084Y0073509D01*
X0161590Y0072510D02*
X0156135Y0072510D01*
X0155137Y0071511D02*
X0162588Y0071511D01*
X0163975Y0074212D02*
X0159550Y0078637D01*
X0159550Y0091412D01*
X0157528Y0093479D02*
X0155450Y0093479D01*
X0155450Y0094477D02*
X0159109Y0094477D01*
X0159109Y0095476D02*
X0159016Y0095476D01*
X0159016Y0096474D02*
X0159984Y0096474D01*
X0159984Y0097473D02*
X0159016Y0097473D01*
X0159016Y0098471D02*
X0155450Y0098471D01*
X0155450Y0097473D02*
X0155835Y0097473D01*
X0155835Y0096474D02*
X0155450Y0096474D01*
X0155450Y0095476D02*
X0156260Y0095476D01*
X0156659Y0092480D02*
X0155450Y0092480D01*
X0155450Y0091482D02*
X0156659Y0091482D01*
X0156659Y0090483D02*
X0155450Y0090483D01*
X0162000Y0094337D02*
X0173875Y0094337D01*
X0175826Y0096474D02*
X0179800Y0096474D01*
X0179800Y0095476D02*
X0176766Y0095476D01*
X0176766Y0094477D02*
X0180624Y0094477D01*
X0181622Y0093479D02*
X0176766Y0093479D01*
X0176106Y0092480D02*
X0182621Y0092480D01*
X0183619Y0091482D02*
X0175107Y0091482D01*
X0172643Y0091482D02*
X0169842Y0091482D01*
X0170450Y0090483D02*
X0184618Y0090483D01*
X0186154Y0089485D02*
X0170450Y0089485D01*
X0168250Y0089962D02*
X0167625Y0090587D01*
X0164500Y0090587D01*
X0168250Y0089962D02*
X0168250Y0077462D01*
X0170381Y0075506D02*
X0201350Y0075506D01*
X0201350Y0076504D02*
X0171141Y0076504D01*
X0171141Y0077503D02*
X0201350Y0077503D01*
X0201350Y0078501D02*
X0196427Y0078501D01*
X0196247Y0078381D02*
X0196886Y0078808D01*
X0197429Y0079351D01*
X0197856Y0079990D01*
X0198150Y0080700D01*
X0198300Y0081453D01*
X0198300Y0081537D01*
X0192300Y0081537D01*
X0192300Y0077937D01*
X0194784Y0077937D01*
X0195538Y0078087D01*
X0196247Y0078381D01*
X0197528Y0079500D02*
X0201350Y0079500D01*
X0201350Y0080498D02*
X0198067Y0080498D01*
X0198300Y0081497D02*
X0201350Y0081497D01*
X0201350Y0082495D02*
X0198246Y0082495D01*
X0198300Y0082222D02*
X0198150Y0082975D01*
X0197856Y0083685D01*
X0197429Y0084323D01*
X0196886Y0084867D01*
X0196247Y0085294D01*
X0195538Y0085588D01*
X0194784Y0085737D01*
X0192300Y0085737D01*
X0192300Y0082137D01*
X0198300Y0082137D01*
X0198300Y0082222D01*
X0197935Y0083494D02*
X0201350Y0083494D01*
X0201350Y0084492D02*
X0197261Y0084492D01*
X0195771Y0085491D02*
X0201350Y0085491D01*
X0201350Y0086489D02*
X0170450Y0086489D01*
X0170450Y0085491D02*
X0188229Y0085491D01*
X0188462Y0085588D02*
X0187753Y0085294D01*
X0187114Y0084867D01*
X0186571Y0084323D01*
X0186144Y0083685D01*
X0185850Y0082975D01*
X0185700Y0082222D01*
X0185700Y0082137D01*
X0191700Y0082137D01*
X0191700Y0081537D01*
X0192300Y0081537D01*
X0192300Y0082137D01*
X0191700Y0082137D01*
X0191700Y0085737D01*
X0189216Y0085737D01*
X0188462Y0085588D01*
X0186739Y0084492D02*
X0170450Y0084492D01*
X0170450Y0083494D02*
X0186065Y0083494D01*
X0185754Y0082495D02*
X0170450Y0082495D01*
X0170450Y0081497D02*
X0185700Y0081497D01*
X0185700Y0081537D02*
X0185700Y0081453D01*
X0185850Y0080700D01*
X0186144Y0079990D01*
X0186571Y0079351D01*
X0187114Y0078808D01*
X0187753Y0078381D01*
X0188462Y0078087D01*
X0189216Y0077937D01*
X0191700Y0077937D01*
X0191700Y0081537D01*
X0185700Y0081537D01*
X0185933Y0080498D02*
X0170450Y0080498D01*
X0170450Y0079500D02*
X0186472Y0079500D01*
X0187573Y0078501D02*
X0171141Y0078501D01*
X0170400Y0074507D02*
X0187910Y0074507D01*
X0187081Y0073509D02*
X0185838Y0073509D01*
X0182000Y0070809D02*
X0190750Y0070809D01*
X0194418Y0070513D02*
X0201350Y0070513D01*
X0201350Y0071511D02*
X0194418Y0071511D01*
X0194418Y0072510D02*
X0201350Y0072510D01*
X0201350Y0073509D02*
X0194418Y0073509D01*
X0193590Y0074507D02*
X0201350Y0074507D01*
X0201350Y0069514D02*
X0194418Y0069514D01*
X0194418Y0068516D02*
X0201350Y0068516D01*
X0201350Y0067517D02*
X0193997Y0067517D01*
X0194208Y0066519D02*
X0201350Y0066519D01*
X0201350Y0065520D02*
X0194218Y0065520D01*
X0194218Y0063632D02*
X0191234Y0063632D01*
X0191234Y0060451D01*
X0192916Y0060451D01*
X0193297Y0060553D01*
X0193640Y0060750D01*
X0193919Y0061030D01*
X0194116Y0061372D01*
X0194218Y0061753D01*
X0194218Y0063632D01*
X0194218Y0063523D02*
X0201350Y0063523D01*
X0201350Y0062525D02*
X0194218Y0062525D01*
X0194158Y0061526D02*
X0201350Y0061526D01*
X0201350Y0060528D02*
X0193204Y0060528D01*
X0191234Y0060528D02*
X0190266Y0060528D01*
X0190266Y0060451D02*
X0190266Y0063632D01*
X0187281Y0063632D01*
X0187281Y0061753D01*
X0187384Y0061372D01*
X0187581Y0061030D01*
X0187860Y0060750D01*
X0188203Y0060553D01*
X0188584Y0060451D01*
X0190266Y0060451D01*
X0190266Y0061526D02*
X0191234Y0061526D01*
X0191234Y0062525D02*
X0190266Y0062525D01*
X0190266Y0063523D02*
X0191234Y0063523D01*
X0191234Y0064522D02*
X0201350Y0064522D01*
X0201350Y0059529D02*
X0155030Y0059529D01*
X0153250Y0061837D02*
X0170971Y0061837D01*
X0173250Y0064116D01*
X0173654Y0064116D01*
X0177000Y0067462D01*
X0178654Y0067462D01*
X0182000Y0070809D01*
X0185247Y0067517D02*
X0187503Y0067517D01*
X0187292Y0066519D02*
X0185602Y0066519D01*
X0185665Y0065520D02*
X0187281Y0065520D01*
X0187281Y0063523D02*
X0185665Y0063523D01*
X0185665Y0063632D02*
X0182484Y0063632D01*
X0182484Y0060647D01*
X0184363Y0060647D01*
X0184744Y0060750D01*
X0185086Y0060947D01*
X0185366Y0061226D01*
X0185563Y0061568D01*
X0185665Y0061950D01*
X0185665Y0063632D01*
X0185665Y0062525D02*
X0187281Y0062525D01*
X0187342Y0061526D02*
X0185539Y0061526D01*
X0188296Y0060528D02*
X0176200Y0060528D01*
X0177115Y0061526D02*
X0178461Y0061526D01*
X0178437Y0061568D02*
X0178634Y0061226D01*
X0178914Y0060947D01*
X0179256Y0060750D01*
X0179637Y0060647D01*
X0181516Y0060647D01*
X0181516Y0063632D01*
X0178335Y0063632D01*
X0178335Y0061950D01*
X0178437Y0061568D01*
X0178335Y0062525D02*
X0177115Y0062525D01*
X0177115Y0063523D02*
X0178335Y0063523D01*
X0177171Y0064522D02*
X0181516Y0064522D01*
X0182484Y0064522D02*
X0190266Y0064522D01*
X0187081Y0068516D02*
X0185865Y0068516D01*
X0182484Y0063523D02*
X0181516Y0063523D01*
X0181516Y0062525D02*
X0182484Y0062525D01*
X0182484Y0061526D02*
X0181516Y0061526D01*
X0178135Y0070513D02*
X0177115Y0070513D01*
X0177115Y0071511D02*
X0178135Y0071511D01*
X0178135Y0072510D02*
X0177115Y0072510D01*
X0177088Y0073509D02*
X0178162Y0073509D01*
X0173250Y0070809D02*
X0171596Y0070809D01*
X0169500Y0068712D01*
X0169500Y0066212D01*
X0167625Y0064337D01*
X0151375Y0064337D01*
X0150125Y0063087D01*
X0144500Y0063087D01*
X0153250Y0073712D02*
X0153250Y0103087D01*
X0150784Y0105553D01*
X0145140Y0105553D01*
X0151625Y0109312D02*
X0136025Y0109312D01*
X0135700Y0117437D02*
X0151300Y0117437D01*
X0150440Y0121301D02*
X0145140Y0121301D01*
X0150440Y0121301D02*
X0159500Y0112241D01*
X0165346Y0112241D01*
X0168250Y0109337D01*
X0176375Y0109337D01*
X0179500Y0106212D01*
X0178161Y0103464D02*
X0163365Y0103464D01*
X0163365Y0104462D02*
X0163412Y0104462D01*
X0163319Y0102465D02*
X0179800Y0102465D01*
X0179800Y0101467D02*
X0162779Y0101467D01*
X0163165Y0100468D02*
X0179800Y0100468D01*
X0179800Y0099470D02*
X0163165Y0099470D01*
X0163165Y0097473D02*
X0179800Y0097473D01*
X0179800Y0098471D02*
X0159984Y0098471D01*
X0155835Y0099470D02*
X0155450Y0099470D01*
X0155450Y0100468D02*
X0155835Y0100468D01*
X0155450Y0101467D02*
X0156221Y0101467D01*
X0153250Y0103087D02*
X0155346Y0105184D01*
X0159500Y0105184D01*
X0155125Y0108712D02*
X0150410Y0113427D01*
X0145140Y0113427D01*
X0155125Y0108712D02*
X0163875Y0108712D01*
X0165125Y0107462D01*
X0165125Y0106837D01*
X0166838Y0104462D02*
X0177162Y0104462D01*
X0176609Y0105461D02*
X0167836Y0105461D01*
X0169460Y0106459D02*
X0176142Y0106459D01*
X0173875Y0113087D02*
X0170125Y0113087D01*
X0163875Y0119337D01*
X0159904Y0119337D01*
X0159500Y0118934D01*
X0151537Y0129175D02*
X0145140Y0129175D01*
X0166500Y0144403D02*
X0167500Y0144403D01*
X0175641Y0124433D02*
X0186397Y0124433D01*
X0185824Y0123434D02*
X0176640Y0123434D01*
X0177638Y0122436D02*
X0185500Y0122436D01*
X0185500Y0121437D02*
X0178637Y0121437D01*
X0179635Y0120439D02*
X0185742Y0120439D01*
X0186199Y0119440D02*
X0180634Y0119440D01*
X0181632Y0118442D02*
X0187198Y0118442D01*
X0182631Y0117443D02*
X0196675Y0117443D01*
X0187183Y0108456D02*
X0186700Y0108456D01*
X0184500Y0112462D02*
X0184500Y0103087D01*
X0185750Y0101837D01*
X0192000Y0101837D01*
X0187168Y0098471D02*
X0184200Y0098471D01*
X0184200Y0099470D02*
X0186169Y0099470D01*
X0185848Y0095476D02*
X0187670Y0095476D01*
X0191700Y0085491D02*
X0192300Y0085491D01*
X0192300Y0084492D02*
X0191700Y0084492D01*
X0191700Y0083494D02*
X0192300Y0083494D01*
X0192300Y0082495D02*
X0191700Y0082495D01*
X0191700Y0081497D02*
X0192300Y0081497D01*
X0192300Y0080498D02*
X0191700Y0080498D01*
X0191700Y0079500D02*
X0192300Y0079500D01*
X0192300Y0078501D02*
X0191700Y0078501D01*
X0168200Y0074212D02*
X0168200Y0070537D01*
X0168200Y0074212D02*
X0165125Y0077287D01*
X0165125Y0084962D01*
X0153216Y0103053D02*
X0153250Y0103087D01*
X0145640Y0096474D02*
X0144640Y0096474D01*
X0144640Y0095476D02*
X0145640Y0095476D01*
X0145640Y0094477D02*
X0144640Y0094477D01*
X0144640Y0097473D02*
X0098641Y0097473D01*
X0098618Y0096474D02*
X0098225Y0096474D01*
X0092859Y0097473D02*
X0091702Y0097473D01*
X0090704Y0098471D02*
X0092859Y0098471D01*
X0089500Y0095587D02*
X0089500Y0091837D01*
X0088296Y0098471D02*
X0088178Y0098471D01*
X0090750Y0102462D02*
X0090159Y0103053D01*
X0092852Y0111452D02*
X0093550Y0111452D01*
X0105835Y0096474D02*
X0106492Y0096474D01*
X0113709Y0096474D02*
X0114366Y0096474D01*
X0121583Y0096474D02*
X0122240Y0096474D01*
X0129457Y0096474D02*
X0130114Y0096474D01*
X0072967Y0126430D02*
X0071780Y0126430D01*
X0052339Y0136512D02*
X0052339Y0136512D01*
X0050826Y0119440D02*
X0039543Y0119440D01*
X0039543Y0118442D02*
X0049828Y0118442D01*
X0048829Y0117443D02*
X0039033Y0117443D01*
X0014900Y0124433D02*
X0014100Y0124433D01*
X0014100Y0125431D02*
X0014900Y0125431D01*
X0014900Y0126430D02*
X0014100Y0126430D01*
X0035735Y0035565D02*
X0047300Y0035565D01*
X0047300Y0034567D02*
X0035637Y0034567D01*
X0035452Y0033568D02*
X0047300Y0033568D01*
X0047300Y0032570D02*
X0035191Y0032570D01*
X0034846Y0031571D02*
X0047300Y0031571D01*
X0047300Y0030573D02*
X0034408Y0030573D01*
X0033865Y0029574D02*
X0047300Y0029574D01*
X0047776Y0028575D02*
X0033197Y0028575D01*
X0032374Y0027577D02*
X0048774Y0027577D01*
X0049773Y0026578D02*
X0031351Y0026578D01*
X0190631Y0155386D02*
X0201350Y0155386D01*
X0201350Y0154388D02*
X0193691Y0154388D01*
X0195406Y0153389D02*
X0201350Y0153389D01*
X0201350Y0152391D02*
X0196706Y0152391D01*
X0197729Y0151392D02*
X0201350Y0151392D01*
X0201350Y0150394D02*
X0198552Y0150394D01*
X0199220Y0149395D02*
X0201350Y0149395D01*
X0201350Y0148397D02*
X0199763Y0148397D01*
X0200200Y0147398D02*
X0201350Y0147398D01*
X0201350Y0146400D02*
X0200545Y0146400D01*
X0200807Y0145401D02*
X0201350Y0145401D01*
X0201350Y0144403D02*
X0200991Y0144403D01*
X0201089Y0143404D02*
X0201350Y0143404D01*
D31*
X0076050Y0058087D02*
X0072625Y0058087D01*
X0072000Y0058087D01*
X0068250Y0058087D01*
X0067000Y0059337D01*
X0066375Y0059337D01*
X0066250Y0059462D01*
X0066250Y0065887D01*
X0066250Y0068212D01*
X0058250Y0076212D01*
X0058250Y0077576D01*
X0057113Y0077576D01*
X0057000Y0077462D01*
X0052625Y0077462D01*
X0057738Y0078087D02*
X0058250Y0077576D01*
X0054450Y0072262D02*
X0057375Y0069337D01*
X0060125Y0069337D01*
X0064350Y0065887D02*
X0031075Y0065887D01*
X0018875Y0078087D01*
X0015750Y0078087D01*
X0015750Y0068087D02*
X0021375Y0068087D01*
X0037625Y0051837D01*
X0057000Y0051837D01*
X0059250Y0046587D02*
X0035275Y0046587D01*
X0023775Y0058087D01*
X0015750Y0058087D01*
X0035925Y0072262D02*
X0035925Y0072287D01*
X0020125Y0088087D01*
X0015750Y0088087D01*
X0035925Y0072262D02*
X0054450Y0072262D01*
X0068250Y0058087D02*
X0066250Y0056087D01*
X0066250Y0050287D01*
X0066250Y0048587D02*
X0066250Y0047337D01*
X0063250Y0044337D01*
X0062010Y0044337D01*
X0061375Y0043703D01*
X0059510Y0041837D01*
X0061375Y0043703D02*
X0061375Y0043712D01*
X0059250Y0046587D02*
X0062950Y0050287D01*
X0064350Y0050287D01*
X0068250Y0050287D02*
X0068250Y0040474D01*
X0068762Y0039962D01*
X0071375Y0046212D02*
X0070250Y0047337D01*
X0070250Y0050287D01*
X0070250Y0065887D02*
X0070250Y0069462D01*
X0071375Y0070587D01*
D32*
X0071375Y0070587D03*
X0060125Y0069337D03*
X0052625Y0077462D03*
X0057000Y0051837D03*
X0071375Y0046212D03*
X0068875Y0035587D03*
D33*
X0068762Y0078087D02*
X0068762Y0078201D01*
X0068250Y0078712D01*
X0068250Y0082462D01*
X0067000Y0083712D01*
X0065750Y0084962D01*
X0054500Y0084962D01*
X0050125Y0080587D01*
X0035125Y0080587D01*
X0032625Y0083087D01*
X0032000Y0083087D01*
X0051075Y0098712D02*
X0051075Y0115587D01*
X0052950Y0117462D01*
X0060750Y0117462D01*
X0051075Y0098712D02*
X0053462Y0096326D01*
X0059500Y0096326D01*
X0060022Y0096847D01*
X0069500Y0096847D01*
X0070135Y0096212D01*
X0079106Y0096212D01*
X0080573Y0097679D01*
X0034500Y0121724D02*
X0029387Y0121724D01*
X0026887Y0123087D02*
X0014500Y0123087D01*
D34*
X0028275Y0126862D03*
X0028250Y0105587D03*
X0032000Y0083087D03*
X0067000Y0083712D03*
X0060750Y0117462D03*
D35*
X0034500Y0121724D02*
X0028363Y0121724D01*
X0027000Y0123087D01*
X0026887Y0123087D01*
X0014500Y0113087D02*
X0012010Y0110597D01*
X0012010Y0103087D01*
X0019490Y0103087D02*
X0019490Y0105578D01*
X0024500Y0110587D01*
X0034387Y0110587D01*
X0034500Y0110701D01*
X0034625Y0110576D01*
X0034625Y0107687D01*
X0032525Y0105587D01*
X0028250Y0105587D01*
X0033363Y0110701D02*
X0034500Y0110701D01*
M02*
