%
M48
M72
T01C0.01181
T02C0.01575
T03C0.01969
T04C0.03200
T05C0.03600
T06C0.04000
T07C0.12598
%
T01
X11550Y25137
X33975Y24487
X45025Y33912
X46975Y43337
X51650Y43987
X41775Y55687
X40800Y62837
X37225Y69012
X32025Y61537
X28125Y64787
X23575Y61537
X24550Y51137
X11550Y50812
X36575Y42037
X57050Y24812
X69400Y24812
X83700Y24812
X101950Y37112
X110675Y27087
X123675Y25462
X139925Y25462
X155850Y25462
X166250Y28387
X168525Y37487
X165275Y47887
X174700Y48537
X180550Y50812
X180875Y56012
X191275Y58287
X196475Y67062
X186400Y76487
X175025Y75837
X168250Y77462
X163975Y74212
X165125Y67462
X153250Y61837
X149350Y59587
X141225Y61912
X146100Y69337
X142200Y73237
X140900Y76487
X149500Y79837
X153250Y73712
X165125Y84962
X159550Y91412
X162000Y94337
X173875Y94337
X174050Y88512
X183475Y88187
X185425Y98262
X177300Y101837
X179500Y106212
X188025Y107037
X185425Y117112
X173875Y113087
X168250Y109337
X165125Y106837
X163875Y119337
X172000Y124962
X175025Y131737
X163000Y137262
X159500Y134962
X153250Y136212
X154500Y126212
X137325Y140837
X137000Y148962
X128875Y139537
X130500Y133687
X135700Y129137
X135375Y121987
X135375Y113537
X128225Y107362
X134400Y106387
X121400Y107362
X113600Y107362
X106450Y107362
X99625Y107687
X99300Y115162
X97025Y121012
X89875Y117762
X91175Y113862
X87925Y109312
X90750Y102462
X91175Y98912
X89500Y95587
X95750Y98087
X84500Y86837
X80775Y91112
X97010Y81203
X104175Y81037
X104500Y69337
X98000Y70037
X91975Y74987
X100600Y60562
X108400Y58612
X108050Y49187
X101025Y49212
X83600Y54612
X72000Y54337
X69500Y54337
X67000Y54337
X64500Y54337
X64500Y56837
X67000Y56837
X69500Y56837
X72000Y56837
X72000Y59337
X69500Y59337
X67000Y59337
X64500Y59337
X64500Y61837
X67000Y61837
X69500Y61837
X72000Y61837
X67000Y71537
X57000Y60087
X36900Y76487
X39500Y84337
X42000Y84337
X44500Y84337
X47000Y84337
X47000Y86837
X44500Y86837
X42000Y86837
X39500Y86837
X39500Y89337
X42000Y89337
X44500Y89337
X47000Y89337
X49500Y89337
X52000Y89337
X52000Y86837
X49500Y86837
X49500Y84337
X56400Y89812
X49575Y93712
X41450Y104437
X44187Y109337
X44187Y111837
X44187Y114337
X47312Y114337
X47312Y111837
X47312Y109337
X39500Y120037
X39825Y127512
X48925Y127837
X49250Y136937
X37225Y136287
X35925Y153837
X58025Y154162
X69075Y145387
X71350Y154487
X89550Y148962
X89875Y140837
X103200Y149612
X115225Y149287
X125625Y148962
X153875Y149337
X154550Y154155
X163000Y154812
X171375Y149337
X176000Y154162
X199400Y153512
X200050Y130112
X195825Y116787
X199725Y108337
X199400Y96962
X199400Y87212
X153575Y52112
X139600Y51787
X127950Y67462
X122000Y68712
X118150Y65812
X140125Y87462
X148875Y87462
X89875Y126212
X70975Y124962
X72000Y134962
X58350Y128162
X71675Y113537
X36250Y97287
X26500Y94612
X20650Y94037
X11225Y94687
X28125Y84612
X27475Y74212
X11550Y153187
X198750Y25462
T02
X71375Y46212
X68875Y35587
X57000Y51837
X60125Y69337
X52625Y77462
X71375Y70587
T03
X67000Y83712
X60750Y117462
X28275Y126862
X28250Y105587
X32000Y83087
T04
X192000Y81837
X192000Y91837
X192000Y101837
X192000Y111837
X192000Y121837
T05
X14500Y123087
X14500Y113087
T06
X15750Y88087
X15750Y78087
X15750Y68087
X15750Y58087
X97000Y29337
X107000Y29337
X117000Y29337
X63250Y145587
X53250Y145587
X43250Y145587
T07
X22748Y142635
X22748Y36335
X188102Y36335
X188102Y142635
M30
